<svg xmlns="http://www.w3.org/2000/svg" width="16" height="16" viewBox="0 0 16 16">
    <defs>
        <style>
            .cls-1,.cls-2{fill:none}.cls-2{stroke:#666;stroke-miterlimit:10;stroke-width:.8px}
        </style>
    </defs>
    <g id="ic_biplot" transform="translate(-1251.361 -520.203)">
        <path id="Rectangle_17461" d="M0 0h16v16H0z" class="cls-1" data-name="Rectangle 17461" transform="translate(1251.362 520.203)"/>
        <g id="Group_34047" data-name="Group 34047">
            <circle id="Ellipse_1274" cx="1.108" cy="1.108" r="1.108" class="cls-2" data-name="Ellipse 1274" transform="translate(1258.169 526.969)"/>
            <circle id="Ellipse_1275" cx="1.108" cy="1.108" r="1.108" class="cls-2" data-name="Ellipse 1275" transform="translate(1263.146 523.316)"/>
            <circle id="Ellipse_1276" cx="1.108" cy="1.108" r="1.108" class="cls-2" data-name="Ellipse 1276" transform="translate(1257.457 522.208)"/>
            <circle id="Ellipse_1277" cx="1.108" cy="1.108" r="1.108" class="cls-2" data-name="Ellipse 1277" transform="translate(1253.747 526.311)"/>
            <circle id="Ellipse_1278" cx="1.108" cy="1.108" r="1.108" class="cls-2" data-name="Ellipse 1278" transform="translate(1253.362 531.982)"/>
            <circle id="Ellipse_1279" cx="1.108" cy="1.108" r="1.108" class="cls-2" data-name="Ellipse 1279" transform="translate(1261.431 529.921)"/>
            <path id="Line_2372" d="M.383 2.559L0 0" class="cls-2" data-name="Line 2372" transform="translate(1258.73 524.423)"/>
            <path id="Line_2373" d="M0 2.341L3.19 0" class="cls-2" data-name="Line 2373" transform="translate(1260.174 525.077)"/>
            <path id="Line_2374" d="M0 0l2.219.331" class="cls-2" data-name="Line 2374" transform="translate(1255.949 527.581)"/>
            <path id="Line_2375" d="M0 3.414L3.274 0" class="cls-2" data-name="Line 2375" transform="translate(1255.236 528.876)"/>
            <path id="Line_2376" d="M1.627 1.459L0 0" class="cls-2" data-name="Line 2376" transform="translate(1260.087 528.831)"/>
        </g>
    </g>
</svg>
