<svg xmlns="http://www.w3.org/2000/svg" width="16" height="16" viewBox="0 0 16 16">
    <defs>
        <style>
            .cls-1,.cls-2{fill:none}.cls-1{stroke:#666;stroke-miterlimit:10;stroke-width:.8px}
        </style>
    </defs>
    <g id="ic_map" transform="translate(-1089.361 -677.203)">
        <path id="Path_34573" d="M1100.216 680.231a4.468 4.468 0 0 0-7.077 1.967 4.337 4.337 0 0 0 .284 3.578l3.547 5.224a.449.449 0 0 0 .387.206.472.472 0 0 0 .395-.206l3.562-5.244a4.415 4.415 0 0 0-1.1-5.522zm-2.054 5.517a2.243 2.243 0 0 1-.8.152 2.267 2.267 0 0 1-.8-.152 2.224 2.224 0 1 1 1.609 0z" class="cls-1" data-name="Path 34573"/>
        <path id="Rectangle_17444" d="M0 0h16v16H0z" class="cls-2" data-name="Rectangle 17444" transform="translate(1089.362 677.203)"/>
    </g>
</svg>
