<svg xmlns="http://www.w3.org/2000/svg" width="16" height="16" viewBox="0 0 16 16">
    <defs>
        <style>
            .cls-1,.cls-2{fill:none}.cls-2{stroke:#666;stroke-miterlimit:10;stroke-width:.8px}
        </style>
    </defs>
    <g id="ic_imagegird" transform="translate(-1251.361 -677.203)">
        <path id="Rectangle_17486" d="M0 0h16v16H0z" class="cls-1" data-name="Rectangle 17486" transform="translate(1251.362 677.203)"/>
        <g id="Group_34069" data-name="Group 34069">
            <path id="Rectangle_17487" d="M0 0h6v6H0z" class="cls-2" data-name="Rectangle 17487" transform="translate(1253.362 679.201)"/>
            <path id="Rectangle_17488" d="M0 0h6v6H0z" class="cls-2" data-name="Rectangle 17488" transform="translate(1259.362 679.201)"/>
            <path id="Rectangle_17489" d="M0 0h6v6H0z" class="cls-2" data-name="Rectangle 17489" transform="translate(1253.362 685.204)"/>
            <path id="Rectangle_17490" d="M0 0h6v6H0z" class="cls-2" data-name="Rectangle 17490" transform="translate(1259.362 685.204)"/>
            <circle id="Ellipse_1286" cx="1.112" cy="1.112" r="1.112" class="cls-2" data-name="Ellipse 1286" transform="translate(1261.249 681.089)"/>
            <circle id="Ellipse_1287" cx="1.112" cy="1.112" r="1.112" class="cls-2" data-name="Ellipse 1287" transform="translate(1255.249 681.089)"/>
            <path id="Rectangle_17491" d="M0 0h2.225v2.225H0z" class="cls-2" data-name="Rectangle 17491" transform="translate(1255.249 687.092)"/>
            <path id="Path_34600" d="M1262.362 687.351l-1.112 1.927h2.225z" class="cls-2" data-name="Path 34600"/>
        </g>
    </g>
</svg>
