<svg xmlns="http://www.w3.org/2000/svg" width="16" height="16" viewBox="0 0 16 16">
    <defs>
        <style>
            .cls-1,.cls-2{fill:none}.cls-2{stroke:#666;stroke-miterlimit:10;stroke-width:.8px}
        </style>
    </defs>
    <g id="ic_line" transform="translate(-1251.361 -406.22)">
        <path id="Rectangle_17450" d="M0 0h16v16H0z" class="cls-1" data-name="Rectangle 17450" transform="translate(1251.362 406.219)"/>
        <path id="Path_34579" d="M1255.886 412.611a1.5 1.5 0 1 1 1.536 1.462 1.5 1.5 0 0 1-1.536-1.462zm-1.332 6.822a1.5 1.5 0 1 0-1.537-1.463 1.5 1.5 0 0 0 1.537 1.463zm6.731-1.667a1.5 1.5 0 1 0-1.537-1.462 1.5 1.5 0 0 0 1.537 1.462zm2.958-5.761a1.5 1.5 0 1 0-1.536-1.462 1.5 1.5 0 0 0 1.536 1.462zm-8.989 4.627l1.4-2.471m1.785-.525l1.714 1.606m3.442-3.368l-1.721 3.036" class="cls-2" data-name="Path 34579"/>
    </g>
</svg>
