<svg xmlns="http://www.w3.org/2000/svg" width="16" height="16" viewBox="0 0 16 16">
    <defs>
        <style>
            .cls-1,.cls-2{fill:none}.cls-2{stroke:#666;stroke-miterlimit:10;stroke-width:.8px}
        </style>
    </defs>
    <g id="ic_network" transform="translate(-286 -1739)">
        <path id="Rectangle_17443" d="M0 0h16v16H0z" class="cls-1" data-name="Rectangle 17443" transform="translate(286 1739)"/>
        <path id="Path_34595" d="M1260.036 565.319a1.108 1.108 0 1 1-1.108 1.108 1.108 1.108 0 0 1 1.108-1.108zm-2.146-4.009a1.107 1.107 0 1 0 1.11-1.11 1.107 1.107 0 0 0-1.11 1.11zm5.21 9.785a1.108 1.108 0 1 0 1.108-1.108 1.108 1.108 0 0 0-1.108 1.108zm-4.083-5.1l-2.444-1.044m5.921-1.13l-1.7 1.8m2.673 4.692l-2.7-3.056m-.962-1.914l-.621-2.941m4.461-1.457a1.669 1.669 0 1 0 1.669 1.67 1.67 1.67 0 0 0-1.667-1.67zm-7.723 7.208a1.669 1.669 0 1 0 1.669 1.669 1.669 1.669 0 0 0-1.667-1.669zm-.847-5.619a1.669 1.669 0 1 0 1.669 1.669 1.669 1.669 0 0 0-1.667-1.669zm4.1 4.6l-1.974 1.627" class="cls-2" data-name="Path 34595" transform="translate(-965.361 1180.797)"/>
    </g>
</svg>
