<svg xmlns="http://www.w3.org/2000/svg" width="16" height="16" viewBox="0 0 16 16">
    <defs>
        <style>
            .cls-1,.cls-2{fill:none}.cls-2{stroke:#666;stroke-miterlimit:10;stroke-width:.8px}
        </style>
    </defs>
    <g id="ic_pairwise" transform="translate(-1197.361 -637.489)">
        <path id="Rectangle_17493" d="M0 0h16v16H0z" class="cls-1" data-name="Rectangle 17493" transform="translate(1197.362 637.489)"/>
        <path id="Path_34602" d="M1202.932 651.489h-1.764v-2.257h1.764zm7.506-4.048h-1.764v4.048h1.764zm-3.753.862h-1.764v3.186h1.764zm-7.323-8.814v12h12m-12-6h12m-9.312-3.787a.918.918 0 1 0 .918.918.918.918 0 0 0-.918-.92zm3.753-1.345a.918.918 0 1 0 .918.917.918.918 0 0 0-.921-.917zm3.753.818a.918.918 0 1 0 .918.918.918.918 0 0 0-.918-.918z" class="cls-2" data-name="Path 34602"/>
    </g>
</svg>
