<svg xmlns="http://www.w3.org/2000/svg" width="16" height="16" version="1.1" style=""><rect id="backgroundrect" width="100%" height="100%" x="0" y="0" fill="none" stroke="none" class="" style=""/>
  <defs/>
  
<g class="currentLayer" style=""><title>Layer 1</title><g id="ic_wordcloud" class="">
    <path style="fill:#333333" id="path3726" d="M9.326624662492693,1.2352552867594049 a2.962549916995664,4.330434625575291 0 0 1 2.962549916995664,5.10372652299945 L12.130466548220731,7.498919655895092 l0.7935401563381247,0.154658379484832 a2.380620469014373,3.4798135384087154 0 0 1 2.0103017293899144,3.4798135384087154 a2.433523146103581,3.557142728151131 0 0 1 -2.3277177919251653,3.4798135384087154 H3.2957194743229454 a2.5393285002819983,3.7118011076359636 0 0 1 -1.1109562188733741,-6.959627076817431 L2.607984672163238,7.421590466152677 v-0.6186335179393273 a2.380620469014373,3.4798135384087154 0 0 1 2.380620469014373,-3.170496779439052 l0.7935401563381247,0.23198756922724828 l0.5819294479812916,0.3093167589696638 l0.31741606253525,-0.7732918974241599 A3.015452594084873,4.407763815317708 0 0 1 9.326624662492693,1.2352552867594049 m0,-1.1599378461362386 a3.8089927504229975,5.567701661453944 0 0 0 -3.227063302441705,2.6291924512421403 a3.1741606253524974,4.6397513845449545 0 0 0 -4.232214167136663,3.9437886768632113 A3.332868656620121,4.8717389537722 0 0 0 3.2957194743229454,15.773142958333594 H12.606590642023608 a3.1741606253524974,4.6397513845449545 0 0 0 0.4232214167136665,-9.279502769089909 a3.756090073333788,5.490372471711527 0 0 0 -3.756090073333788,-6.41832274862052 z"/>
    <path id="path4836" d="m4.1975868554563265,7.524588307138189 l3.110618161847107,-0.05417683033353673 " style="fill:#333333;stroke:#333333;stroke-width:1.8;stroke-linecap:round;stroke-linejoin:miter;stroke-miterlimit:4;stroke-dasharray:none;stroke-opacity:1"/>
    <path id="path4836-7" d="M4.277059161476113,9.736480745562456 L11.707073726833295,9.712968032129382 " style="fill:#333333;stroke:#333333;stroke-width:1.8;stroke-linecap:round;stroke-linejoin:miter;stroke-miterlimit:4;stroke-dasharray:none;stroke-opacity:1"/>
    <path id="path4836-7-1" d="M4.274480684994782,12.180835554438996 L9.74872189731821,12.149141412731169 " style="fill:#333333;stroke:#333333;stroke-width:1.8;stroke-linecap:round;stroke-linejoin:miter;stroke-miterlimit:4;stroke-dasharray:none;stroke-opacity:1"/>
    <path id="path4883" d="m8.686044132529679,7.439397058674658 h0.3874808970989683 " style="fill:#333333;stroke:#333333;stroke-width:1.79999995;stroke-linecap:round;stroke-linejoin:miter;stroke-miterlimit:4;stroke-dasharray:none;stroke-opacity:1;fill-opacity:1"/>
  </g></g></svg>