<svg xmlns="http://www.w3.org/2000/svg" id="gnb_logo_AnalyticsApp" width="236" height="50" data-name="gnb/logo/AnalyticsApp" viewBox="0 0 236 50">
    <defs>
        <style>
            .cls-1{fill:#fa6868;opacity:0}.cls-2{fill:#31b77e}.cls-3{fill:url(#linear-gradient)}.cls-4{fill:url(#linear-gradient-2)}.cls-5{fill:#74ccd4}.cls-6{fill:url(#linear-gradient-3)}.cls-7{fill:url(#linear-gradient-4)}.cls-8{fill:#fff}
        </style>
        <linearGradient id="linear-gradient" x1=".5" x2=".5" y1="1" gradientUnits="objectBoundingBox">
            <stop offset=".111" stop-color="#4fc3c4"/>
            <stop offset="1" stop-color="#2e7cc0"/>
        </linearGradient>
        <linearGradient id="linear-gradient-2" x1=".259" x2=".621" y1="-.052" y2=".989" gradientUnits="objectBoundingBox">
            <stop offset=".111" stop-color="#4fc3c4"/>
            <stop offset="1" stop-color="#2a9dd4"/>
        </linearGradient>
        <linearGradient id="linear-gradient-3" x1=".5" x2=".5" y2="1" gradientUnits="objectBoundingBox">
            <stop offset="0" stop-color="#6f79ba"/>
            <stop offset=".093" stop-color="#6b84bd"/>
            <stop offset=".29" stop-color="#619bc7"/>
            <stop offset=".484" stop-color="#56acce"/>
            <stop offset=".67" stop-color="#4db8d2"/>
            <stop offset=".845" stop-color="#46bfd5"/>
            <stop offset="1" stop-color="#41c3d7"/>
        </linearGradient>
        <linearGradient id="linear-gradient-4" x1=".5" x2=".5" y2="1.001" gradientUnits="objectBoundingBox">
            <stop offset="0" stop-color="#6f79ba"/>
            <stop offset=".046" stop-color="#6b7ebd"/>
            <stop offset=".253" stop-color="#5993cc"/>
            <stop offset=".456" stop-color="#42a3d8"/>
            <stop offset=".652" stop-color="#27aee1"/>
            <stop offset=".837" stop-color="#00b5e6"/>
            <stop offset="1" stop-color="#00b7e8"/>
        </linearGradient>
    </defs>
    <path id="사각형_14341" d="M0 0h236v50H0z" class="cls-1" data-name="사각형 14341"/>
    <g id="그룹_22910" data-name="그룹 22910" transform="translate(-162 -201)">
        <g id="그룹_17779" data-name="그룹 17779" transform="translate(166 206)">
            <g id="그룹_7043" data-name="그룹 7043" transform="translate(.022 17.576)">
                <path id="패스_14453" d="M13.4 80.2a12.814 12.814 0 0 0-1.6.088 2.867 2.867 0 0 0 .351 5.72 2.969 2.969 0 0 0 2.608-1.534 9.786 9.786 0 0 1 5.457 8.744 9.958 9.958 0 0 1-10.059 9.84A9.9 9.9 0 0 1 .1 93.525a13.158 13.158 0 0 0 13.3 12.667 13 13 0 1 0 0-25.992z" class="cls-3" data-name="패스 14453" transform="translate(-.1 -80.2)"/>
            </g>
            <path id="패스_14454" d="M20.141 82.867a7.827 7.827 0 0 1-15.648 0h-.11V71.8A8.109 8.109 0 0 1 .57 67.285a.949.949 0 0 0 .022-.11l.022-.088-.022.044C.548 67.022.438 67 .307 67a.339.339 0 0 0-.307.351v15.56a9.941 9.941 0 0 0 10.125 9.818 9.911 9.911 0 0 0 10.015-9.862z" class="cls-4" data-name="패스 14454" transform="translate(0 -52.316)"/>
            <g id="그룹_7044" data-name="그룹 7044" transform="translate(9.117 18.015)">
                <path id="패스_14455" d="M45.939 84a2.1 2.1 0 0 1-.833.175 1.951 1.951 0 0 1-1.972-1.907V82.2a2.892 2.892 0 0 0-1.534 2.542 2.959 2.959 0 0 0 5.917 0A4.078 4.078 0 0 0 47.43 84z" class="cls-5" data-name="패스 14455" transform="translate(-41.6 -82.2)"/>
            </g>
            <g id="그룹_7045" data-name="그룹 7045" transform="translate(2.148)">
                <path id="패스_14456" d="M19.706 0a12.067 12.067 0 0 0-9.84 5 .249.249 0 0 0-.066.175.313.313 0 0 0 .307.307.352.352 0 0 0 .241-.11A9.379 9.379 0 0 1 12.3 3.879c.066-.044.131-.066.2-.11.066-.044.131-.066.2-.11h.022c.066-.022.131-.066.2-.088h.022a1.3 1.3 0 0 0 .175-.088h.022a.441.441 0 0 0 .175-.088.021.021 0 0 0 .022-.022c.066-.022.11-.044.175-.066a.021.021 0 0 0 .022-.022c.066-.022.11-.044.175-.066.022 0 .022 0 .044-.022.066-.022.11-.044.175-.066.022 0 .022 0 .044-.022.066-.022.11-.044.175-.066.022 0 .022 0 .044-.022a.516.516 0 0 1 .175-.044c.022 0 .044 0 .044-.022.044-.022.11-.022.175-.044a.081.081 0 0 0 .066-.022c.044-.022.11-.022.153-.044a.081.081 0 0 0 .066-.022c.044-.022.11-.022.153-.044a.081.081 0 0 0 .066-.022c.044 0 .11-.022.153-.022a.081.081 0 0 0 .066-.022c.044 0 .11-.022.153-.022a.166.166 0 0 0 .088-.022c.044 0 .11-.022.153-.022a.132.132 0 0 0 .088-.022c.044 0 .11-.022.153-.022h.088a.373.373 0 0 0 .153-.022h.811c.329 0 .636.022.942.044a8.993 8.993 0 0 1 3.062.86c.066.022.131.066.2.088.2.11.394.2.592.329a2.171 2.171 0 0 1 .373.241c.131.088.241.175.373.263A8.518 8.518 0 0 1 23.7 5.414c.153.153.307.329.438.482.131.175.285.351.416.526a8.912 8.912 0 0 1 1.709 5.238v.614a.483.483 0 0 1-.022.175v.088c0 .066-.022.131-.022.219v.044c-.022.088-.022.175-.044.263v.066c-.022.066-.022.131-.044.2a.166.166 0 0 1-.022.088c-.022.066-.022.131-.044.175a.081.081 0 0 1-.022.066c-.022.066-.022.131-.044.2 0 .022 0 .022-.022.044a4.416 4.416 0 0 1-.153.5c0 .022 0 .022-.022.044l-.066.2a.077.077 0 0 1-.022.044 1.511 1.511 0 0 1-.088.219v.022c-.088.241-.219.482-.329.723v.022a1.024 1.024 0 0 0-.11.219c-3.244 5.632-8.394 4.515-8.394 4.515a1.784 1.784 0 0 0 0 .373 2.9 2.9 0 0 0 2.937 2.652h.022A11.862 11.862 0 0 0 31.716 11.7 11.853 11.853 0 0 0 19.706 0z" class="cls-6" data-name="패스 14456" transform="translate(-9.8)"/>
            </g>
            <g id="그룹_7046" data-name="그룹 7046" transform="translate(2.148)">
                <path id="패스_14457" d="M19.706 0a12.067 12.067 0 0 0-9.84 5 .249.249 0 0 0-.066.175.313.313 0 0 0 .307.307.352.352 0 0 0 .241-.11 9.416 9.416 0 0 1 6.619-2.718c.241 0 .5 0 .745.022a10.8 10.8 0 0 1 10.234 10.649 10.674 10.674 0 0 1-7.3 10.059A11.847 11.847 0 0 0 31.738 11.7 11.886 11.886 0 0 0 19.706 0z" class="cls-7" data-name="패스 14457" transform="translate(-9.8)"/>
            </g>
        </g>
        <g id="그룹_17780" data-name="그룹 17780" transform="translate(204.944 210)">
            <path id="패스_14458" d="M181.313 41c-3.112 0-3.7-1.841-3.572-3.923h2.52c0 1.14.044 2.126 1.425 2.126a1.2 1.2 0 0 0 1.271-1.359c0-2.17-5.063-2.3-5.063-5.873 0-1.885.9-3.375 3.967-3.375 2.455 0 3.66 1.1 3.507 3.616h-2.455c0-.9-.153-1.819-1.162-1.819a1.167 1.167 0 0 0-1.293 1.293c0 2.279 5.063 2.082 5.063 5.851-.021 3.095-2.302 3.463-4.208 3.463z" class="cls-8" data-name="패스 14458" transform="translate(-177.718 -28.578)"/>
            <path id="패스_14459" d="M216.8 40.532l3.331-12.032h3.309l3.265 12.032h-2.652l-.657-2.674h-3.419l-.679 2.674zm4.843-9.709h-.043l-1.14 5.194h2.389z" class="cls-8" data-name="패스 14459" transform="translate(-208.231 -28.5)"/>
            <path id="패스_14460" d="M266.8 40.532V28.5h4.054l1.885 8.175h.022l1.994-8.175h3.923v12.01h-2.455v-9.249h-.044l-2.3 9.27h-2.389l-2.192-9.27h-.044v9.27z" class="cls-8" data-name="패스 14460" transform="translate(-247.273 -28.5)"/>
            <path id="패스_14461" d="M332.013 41c-3.112 0-3.7-1.841-3.572-3.923h2.52c0 1.14.066 2.126 1.424 2.126a1.2 1.2 0 0 0 1.271-1.359c0-2.17-5.063-2.3-5.063-5.873 0-1.885.9-3.375 3.967-3.375 2.455 0 3.66 1.1 3.507 3.616h-2.455c0-.9-.153-1.819-1.162-1.819a1.167 1.167 0 0 0-1.293 1.293c0 2.279 5.063 2.082 5.063 5.851 0 3.095-2.279 3.463-4.207 3.463z" class="cls-8" data-name="패스 14461" transform="translate(-295.391 -28.578)"/>
            <path id="패스_14462" d="M379.675 28.5v8.525c0 1.8-1.008 3.7-4.076 3.7-2.761 0-4.1-1.425-4.1-3.7V28.5h2.52v8.35c0 1.49.636 2.06 1.556 2.06 1.1 0 1.6-.723 1.6-2.06V28.5z" class="cls-8" data-name="패스 14462" transform="translate(-329.027 -28.5)"/>
            <path id="패스_14463" d="M417.9 40.532V28.5h3.4l3.2 8.328h.044V28.5h2.345v12.01h-3.309l-3.287-8.788h-.022v8.788H417.9z" class="cls-8" data-name="패스 14463" transform="translate(-365.258 -28.5)"/>
            <path id="패스_14464" d="M473.289 32.4c.022-1.118-.153-2.1-1.49-2.1-1.556 0-1.556 2.1-1.556 4.449 0 3.77.373 4.427 1.8 4.427a3.952 3.952 0 0 0 1.249-.241V36.28h-1.362v-1.841h3.879v6.093a23.054 23.054 0 0 1-3.4.394c-4.23 0-4.712-1.753-4.712-6.312 0-3.024.153-6.114 4.252-6.114 2.455 0 3.989 1.381 3.835 3.9z" class="cls-8" data-name="패스 14464" transform="translate(-404.144 -28.5)"/>
            <path id="패스_14465" d="M532.713 41c-3.112 0-3.7-1.841-3.572-3.923h2.52c0 1.14.044 2.126 1.424 2.126a1.2 1.2 0 0 0 1.271-1.359c0-2.17-5.063-2.3-5.063-5.873 0-1.885.9-3.375 3.967-3.375 2.455 0 3.66 1.1 3.507 3.616h-2.455c0-.9-.153-1.819-1.162-1.819a1.167 1.167 0 0 0-1.293 1.293c0 2.279 5.062 2.082 5.062 5.851-.019 3.095-2.3 3.463-4.206 3.463z" class="cls-8" data-name="패스 14465" transform="translate(-452.106 -28.578)"/>
            <path id="패스_14466" d="M572.622 28.5h4.186c3.287 0 3.9 2.192 3.9 5.939 0 1.841.285 6.071-4.011 6.071h-4.1V28.5zm2.5 10.169h1.205c1.534 0 1.841-1.14 1.841-4.164 0-2.213 0-4.164-1.753-4.164h-1.295z" class="cls-8" data-name="패스 14466" transform="translate(-486.055 -28.5)"/>
            <path id="패스_14467" d="M620.672 41c-3.112 0-3.7-1.841-3.55-3.923h2.52c0 1.14.044 2.126 1.425 2.126a1.2 1.2 0 0 0 1.271-1.359c0-2.17-5.062-2.3-5.062-5.873 0-1.885.9-3.375 3.967-3.375 2.455 0 3.66 1.1 3.506 3.616h-2.454c0-.9-.153-1.819-1.162-1.819a1.167 1.167 0 0 0-1.293 1.293c0 2.279 5.063 2.082 5.063 5.851-.045 3.095-2.324 3.463-4.231 3.463z" class="cls-8" data-name="패스 14467" transform="translate(-520.802 -28.578)"/>
            <path id="패스_14470" d="M177.7 114.3h4.164c2.5 0 4.054 1.249 4.054 3.353a2.746 2.746 0 0 1-1.446 2.52 2.913 2.913 0 0 1 1.841 2.871c0 2.279-1.644 3.55-4.142 3.55h-4.449V114.3zm1.841 1.666v3.463h2.389c1.49 0 2.148-.745 2.148-1.775 0-1.052-.767-1.688-2.214-1.688zm0 5.15v3.791h2.608c1.446 0 2.3-.767 2.3-1.907 0-1.162-.7-1.885-2.389-1.885z" class="cls-8" data-name="패스 14470" transform="translate(-177.7 -95.496)"/>
            <path id="패스_14471" d="M223.4 125.7h2.06v1.512a2.908 2.908 0 0 1 2.805-1.512h.92v1.951h-1.271c-1.753 0-2.455.877-2.455 2.871v4.756H223.4z" class="cls-8" data-name="패스 14471" transform="translate(-213.384 -104.398)"/>
            <path id="패스_14472" d="M255.959 107.5a1.359 1.359 0 1 1-1.359 1.359 1.312 1.312 0 0 1 1.359-1.359zm-1.03 4.164h2.038v9.4h-2.038z" class="cls-8" data-name="패스 14472" transform="translate(-237.747 -90.187)"/>
            <path id="패스_14473" d="M271.9 130.587a4.691 4.691 0 0 1 4.712-4.887 4.044 4.044 0 0 1 3.134 1.468V125.9h2.016v9.183a4.485 4.485 0 0 1-4.756 4.8 4.9 4.9 0 0 1-4.668-2.652l1.863-.877a2.838 2.838 0 0 0 2.805 1.687 2.681 2.681 0 0 0 2.74-2.871v-1.183a4.043 4.043 0 0 1-3.156 1.534 4.807 4.807 0 0 1-4.69-4.934zm7.934-.022a2.982 2.982 0 1 0-2.981 3.068 2.984 2.984 0 0 0 2.981-3.068z" class="cls-8" data-name="패스 14473" transform="translate(-251.255 -104.398)"/>
            <path id="패스_14474" d="M323.3 114.3h1.994v3.857a3.57 3.57 0 0 1 2.893-1.359c2.367 0 3.813 1.534 3.813 4.1v5.479h-2.038v-5.282c0-1.556-.745-2.542-2.279-2.542a2.406 2.406 0 0 0-2.367 2.674v5.15H323.3z" class="cls-8" data-name="패스 14474" transform="translate(-291.391 -95.496)"/>
            <path id="패스_14475" d="M369.3 114.731h1.6v-2.214l2.038-1.118v3.331h1.994v1.8h-1.994v3.748c0 1.688.263 1.95 1.994 1.95v1.907h-.307c-2.871 0-3.726-.9-3.726-3.835v-3.77h-1.6z" class="cls-8" data-name="패스 14475" transform="translate(-327.309 -93.232)"/>
            <path id="패스_14476" d="M401.259 107.4a1.359 1.359 0 1 1-1.359 1.359 1.312 1.312 0 0 1 1.359-1.359zm-1.03 4.164h2.038v9.4h-2.038z" class="cls-8" data-name="패스 14476" transform="translate(-351.203 -90.108)"/>
            <path id="패스_14477" d="M417.2 130.587a4.841 4.841 0 0 1 4.909-4.887 4.768 4.768 0 0 1 4.471 2.871l-1.8.767a2.789 2.789 0 0 0-2.652-1.775 3 3 0 0 0 .044 6 2.844 2.844 0 0 0 2.652-1.841l1.819.767a4.749 4.749 0 0 1-4.515 2.959 4.828 4.828 0 0 1-4.928-4.861z" class="cls-8" data-name="패스 14477" transform="translate(-364.712 -104.398)"/>
            <path id="패스_14478" d="M464.4 133.27l1.8-.986a2.745 2.745 0 0 0 2.476 1.359c1.162 0 1.775-.57 1.775-1.227 0-.767-1.118-.942-2.323-1.205-1.6-.329-3.287-.855-3.287-2.783 0-1.49 1.424-2.849 3.66-2.827a4.337 4.337 0 0 1 3.835 1.819l-1.687.92a2.407 2.407 0 0 0-2.148-1.074c-1.118 0-1.644.5-1.644 1.118 0 .679.811.833 2.235 1.14 1.578.329 3.353.855 3.353 2.827 0 1.4-1.249 3.024-3.879 3a4.286 4.286 0 0 1-4.166-2.081z" class="cls-8" data-name="패스 14478" transform="translate(-401.568 -104.319)"/>
        </g>
        <g id="그룹_22940" data-name="그룹 22940" transform="translate(-12.177 -280.503)">
            <path id="패스_28436" d="M296.76 511.124h-3.583v-1.609h9.106v1.609h-3.6v10.6h-1.923z" class="cls-8" data-name="패스 28436"/>
            <path id="패스_28437" d="M301.787 517.178c0-3.052 2.04-4.81 4.3-4.81s4.3 1.758 4.3 4.81c0 3.018-2.04 4.76-4.3 4.76s-4.3-1.738-4.3-4.76zm6.635 0c0-1.941-.9-3.235-2.339-3.235-1.426 0-2.322 1.294-2.322 3.235 0 1.924.9 3.2 2.322 3.2 1.443.001 2.339-1.278 2.339-3.2z" class="cls-8" data-name="패스 28437"/>
            <path id="패스_28438" d="M311.476 517.178c0-3.052 2.04-4.81 4.295-4.81s4.3 1.758 4.3 4.81c0 3.018-2.04 4.76-4.3 4.76s-4.295-1.738-4.295-4.76zm6.634 0c0-1.941-.895-3.235-2.339-3.235-1.425 0-2.322 1.294-2.322 3.235 0 1.924.9 3.2 2.322 3.2 1.444.001 2.339-1.278 2.339-3.2z" class="cls-8" data-name="패스 28438"/>
            <path id="패스_28439" d="M321.812 519.583V508.5h1.89v11.18c0 .513.233.7.464.7a1.33 1.33 0 0 0 .315-.033l.249 1.443a3.062 3.062 0 0 1-1.028.149c-1.377-.001-1.89-.879-1.89-2.356z" class="cls-8" data-name="패스 28439"/>
            <path id="패스_28440" d="M325.594 516.332h4.379v1.41h-4.379z" class="cls-8" data-name="패스 28440"/>
            <path id="패스_28441" d="M331.683 508.5h1.857v8.525h.05l3.582-4.427h2.106l-3.1 3.7 3.45 5.424h-2.073l-2.472-4.13-1.542 1.774v2.356h-1.857z" class="cls-8" data-name="패스 28441"/>
            <path id="패스_28442" d="M340.458 509.764a1.121 1.121 0 0 1 1.211-1.128 1.131 1.131 0 1 1-1.211 1.128zm.266 2.837h1.89v9.122h-1.89z" class="cls-8" data-name="패스 28442"/>
            <path id="패스_28443" d="M345.285 518.737v-4.611h-1.326V512.7l1.409-.1.216-2.522h1.609v2.522h2.371v1.525h-2.371v4.628c0 1.095.381 1.658 1.327 1.658a2.7 2.7 0 0 0 .978-.216l.349 1.41a5.833 5.833 0 0 1-1.791.332c-2.056.001-2.771-1.276-2.771-3.2z" class="cls-8" data-name="패스 28443"/>
        </g>
    </g>
</svg>
