<svg xmlns="http://www.w3.org/2000/svg" width="40" height="40" viewBox="0 0 40 40">
    <defs>
        <style>
            .cls-1{fill:none}.cls-2{fill:#323333}.cls-3{fill:#e2e1e1}.cls-4{fill:#bababa}
        </style>
    </defs>
    <g id="ic_stackedarea" transform="translate(-121.922 -254.259)">
        <path id="Rectangle_17684" d="M0 0h40v40H0z" class="cls-1" data-name="Rectangle 17684" transform="translate(121.923 254.259)"/>
        <g id="Group_34151" data-name="Group 34151" transform="translate(2 2)">
            <path id="Path_34872" d="M154.423 285.419v-12.16a.5.5 0 0 0-.851-.35l-1.849 1.85h-1.68l-1.891-.94a.5.5 0 0 0-.58.09l-1.74 1.75-1.56-.78-1.89-2.84-3.98-11.93a.533.533 0 0 0-.28-.31.512.512 0 0 0-.42.02l-2 1a.469.469 0 0 0-.26.32l-1.98 7.92-1.88 2.82-1.88.94a.39.39 0 0 0-.13.09l-1.94 1.94-.709.36v-16.95a1 1 0 0 0-2 0v28a1 1 0 0 0 1 1h28a.99.99 0 0 0 1-1 .964.964 0 0 0-.5-.84zm-1-.16h-26.5v-4.94l3.12-1.56h1.88a.455.455 0 0 0 .229-.05l2-1a.477.477 0 0 0 .25-.29l1.93-5.8 1.37-.68 3.781 7.55a.377.377 0 0 0 .089.13l2 2a.39.39 0 0 0 .13.09l2 1a.5.5 0 0 0 .581-.09l1.739-1.75 1.68.84a.446.446 0 0 0 .221.05h2a.455.455 0 0 0 .229-.05l1.271-.64zm0-6.3l-1.611.8h-1.769l-1.891-.94a.5.5 0 0 0-.58.09l-1.74 1.75-1.609-.81-1.881-1.88-3.97-7.93a.488.488 0 0 0-.67-.22l-2 1a.483.483 0 0 0-.25.29l-1.93 5.8-1.71.85h-1.889a.459.459 0 0 0-.221.06l-2.779 1.39v-2.89l1.229-.61a.385.385 0 0 0 .131-.09l1.94-1.94 1.929-.97a.5.5 0 0 0 .19-.17l2-3a.537.537 0 0 0 .071-.15l1.94-7.78 1.279-.64 3.82 11.45a.356.356 0 0 0 .06.12l2 3a.519.519 0 0 0 .19.17l2 1a.5.5 0 0 0 .581-.09l1.739-1.75 1.68.84a.446.446 0 0 0 .221.05h2a.526.526 0 0 0 .36-.14l1.14-1.15z" class="cls-2" data-name="Path 34872"/>
            <path id="Path_34873" d="M153.423 274.469v4.49l-1.611.8h-1.769l-1.891-.94a.5.5 0 0 0-.58.09l-1.74 1.75-1.609-.81-1.881-1.88-3.97-7.93a.488.488 0 0 0-.67-.22l-2 1a.483.483 0 0 0-.25.29l-1.93 5.8-1.71.85h-1.889a.459.459 0 0 0-.221.06l-2.779 1.39v-2.89l1.229-.61a.385.385 0 0 0 .131-.09l1.94-1.94 1.929-.97a.5.5 0 0 0 .19-.17l2-3a.537.537 0 0 0 .071-.15l1.94-7.78 1.279-.64 3.82 11.45a.356.356 0 0 0 .06.12l2 3a.519.519 0 0 0 .19.17l2 1a.5.5 0 0 0 .581-.09l1.739-1.75 1.68.84a.446.446 0 0 0 .221.05h2a.526.526 0 0 0 .36-.14z" class="cls-3" data-name="Path 34873"/>
            <path id="Path_34874" d="M153.423 280.069v5.19h-26.5v-4.94l3.12-1.56h1.88a.455.455 0 0 0 .229-.05l2-1a.477.477 0 0 0 .25-.29l1.93-5.8 1.37-.68 3.781 7.55a.377.377 0 0 0 .089.13l2 2a.39.39 0 0 0 .13.09l2 1a.5.5 0 0 0 .581-.09l1.739-1.75 1.68.84a.446.446 0 0 0 .221.05h2a.455.455 0 0 0 .229-.05z" class="cls-4" data-name="Path 34874"/>
        </g>
    </g>
</svg>
