<svg xmlns="http://www.w3.org/2000/svg" width="40" height="40" viewBox="0 0 40 40">
    <defs>
        <style>
            .cls-1{fill:none}.cls-2{fill:#323333}.cls-3{fill:#bababa}.cls-4{fill:#e2e1e1}
        </style>
    </defs>
    <g id="ic_100stac3" transform="translate(-177.922 -254.259)">
        <path id="Rectangle_17685" d="M0 0h40v40H0z" class="cls-1" data-name="Rectangle 17685" transform="translate(177.923 254.259)"/>
        <g id="Group_34153" data-name="Group 34153" transform="translate(2 2)">
            <path id="Path_34875" d="M209.923 256.259h-28a2.005 2.005 0 0 0-2 2v28a2 2 0 0 0 2 2h28a1.993 1.993 0 0 0 2-2v-28a2 2 0 0 0-2-2zm0 30h-28v-5.23l3.529-1.76h2a.594.594 0 0 0 .231-.05l2.12-1.07a.483.483 0 0 0 .25-.29l2.06-6.17 1.49-.75 4.019 8.06a1.271 1.271 0 0 0 .1.13l2.12 2.12a.578.578 0 0 0 .13.09l2.13 1.06a.486.486 0 0 0 .57-.09l1.87-1.87 1.8.9a.592.592 0 0 0 .229.05h2.12a.594.594 0 0 0 .231-.05l1-.5zm0-6.54l-1.351.67h-1.88l-2.019-1.01a.5.5 0 0 0-.58.1l-1.87 1.87-1.73-.87-2.01-2-4.21-8.43a.488.488 0 0 0-.67-.22l-2.12 1.06a.48.48 0 0 0-.25.29l-2.06 6.17-1.84.92h-2a.589.589 0 0 0-.23.05l-3.18 1.59v-8.44l1.4-.69h2.011a.428.428 0 0 0 .22-.06l4.25-2.12a.493.493 0 0 0 .24-.27l2.06-5.13 1.5-.75 1.93 3.85 2.19 3.26 2.12 2.13a.52.52 0 0 0 .359.14h2.12a.51.51 0 0 0 .421-.22l1.87-2.82 1.73.87a.592.592 0 0 0 .229.05h2.12a.511.511 0 0 0 .361-.15l.87-.88zm0-12.45l-1.44 1.44h-1.791l-2.019-1.01a.5.5 0 0 0-.64.17l-1.98 2.96H200.4l-1.91-1.9-2.09-3.13-2.13-4.25a.479.479 0 0 0-.29-.25.5.5 0 0 0-.38.03l-2.12 1.06a.5.5 0 0 0-.24.26l-2.051 5.14-3.979 1.99h-2.01a.438.438 0 0 0-.219.05l-1.06.52v-12.09h28z" class="cls-2" data-name="Path 34875"/>
            <path id="Path_34876" d="M209.923 280.839v5.42h-28v-5.23l3.529-1.76h2a.594.594 0 0 0 .231-.05l2.12-1.07a.483.483 0 0 0 .25-.29l2.06-6.17 1.49-.75 4.019 8.06a1.271 1.271 0 0 0 .1.13l2.12 2.12a.578.578 0 0 0 .13.09l2.13 1.06a.486.486 0 0 0 .57-.09l1.87-1.87 1.8.9a.592.592 0 0 0 .229.05h2.12a.594.594 0 0 0 .231-.05z" class="cls-3" data-name="Path 34876"/>
            <path id="Path_34877" d="M209.923 268.679v11.04l-1.351.67h-1.88l-2.019-1.01a.5.5 0 0 0-.58.1l-1.87 1.87-1.73-.87-2.01-2-4.21-8.43a.488.488 0 0 0-.67-.22l-2.12 1.06a.48.48 0 0 0-.25.29l-2.06 6.17-1.84.92h-2a.589.589 0 0 0-.23.05l-3.18 1.59v-8.44l1.4-.69h2.011a.428.428 0 0 0 .22-.06l4.25-2.12a.493.493 0 0 0 .24-.27l2.06-5.13 1.5-.75 1.93 3.85 2.19 3.26 2.12 2.13a.52.52 0 0 0 .359.14h2.12a.51.51 0 0 0 .421-.22l1.87-2.82 1.73.87a.592.592 0 0 0 .229.05h2.12a.511.511 0 0 0 .361-.15z" class="cls-4" data-name="Path 34877"/>
        </g>
    </g>
</svg>
