<svg xmlns="http://www.w3.org/2000/svg" width="40" height="40" viewBox="0 0 40 40">
    <defs>
        <style>
            .cls-1{fill:none}.cls-2{fill:#323333}.cls-3{fill:#e2e1e1}.cls-4{fill:#bababa}
        </style>
    </defs>
    <g id="ic_area" transform="translate(-65.922 -254.259)">
        <path id="Rectangle_17683" d="M0 0h40v40H0z" class="cls-1" data-name="Rectangle 17683" transform="translate(65.923 254.259)"/>
        <g id="Group_34149" data-name="Group 34149" transform="translate(2 2)">
            <path id="Path_34867" d="M98.423 285.419v-21.16a.5.5 0 0 0-.5-.5h-2a.457.457 0 0 0-.221.06l-1.89.94h-1.889a.5.5 0 0 0-.411.23l-2 3a.235.235 0 0 0-.06.12l-1.98 5.93-1.27 1.91-1.8-5.83a.5.5 0 0 0-.349-.34.517.517 0 0 0-.481.13l-1.85 1.85h-1.8a.5.5 0 0 0-.43.26L77.1 276.2l-.7-2.09a.507.507 0 0 0-.6-.33l-4 1a.509.509 0 0 0-.341.3l-.539 1.34v-18.16a1 1 0 0 0-2 0v28a1 1 0 0 0 1 1h28a.99.99 0 0 0 1-1 .966.966 0 0 0-.497-.841zm-18.211-12.66h1.711a.521.521 0 0 0 .359-.14l1.41-1.41 1.78 5.79-1.81 2.76h-5.38l-.74-2.24-.02-.04zm-9.289 6.35l1.369-3.42 3.31-.83.831 2.51-.861 1.51-3.76 1.88h-.889zm26.5 6.15h-26.5v-3.5h1a.455.455 0 0 0 .229-.05l4-2a.454.454 0 0 0 .211-.2l.5-.87.589 1.78a.492.492 0 0 0 .471.34h6a.5.5 0 0 0 .419-.22l1.521-2.28 1.589 5.15a.483.483 0 0 0 .471.35h2a.5.5 0 0 0 .469-.31l1.87-4.69h1.46l1.85 1.86a.5.5 0 0 0 .351.14h1.5zm0-5.5h-1.291l-1.85-1.85a.531.531 0 0 0-.359-.15h-2a.509.509 0 0 0-.461.32l-1.87 4.68h-1.3l-1.71-5.57 1.76-2.65a.672.672 0 0 0 .06-.12l1.98-5.93 1.81-2.73h1.731a.455.455 0 0 0 .229-.05l1.89-.95h1.381z" class="cls-2" data-name="Path 34867"/>
            <g id="Group_34147" data-name="Group 34147">
                <path id="Path_34868" d="M95.923 280.759a.5.5 0 0 1-.351-.14l-1.85-1.86h-1.46l-1.87 4.69a.5.5 0 0 1-.469.31h-2a.483.483 0 0 1-.471-.35l-1.589-5.15-1.521 2.28a.5.5 0 0 1-.419.22h-6a.492.492 0 0 1-.471-.34l-.589-1.78-.5.87a.454.454 0 0 1-.211.2l-4 2a.455.455 0 0 1-.229.05h-1v3.5h26.5v-4.5z" class="cls-3" data-name="Path 34868"/>
                <path id="Path_34869" d="M78.282 279.759h5.38l1.81-2.76-1.78-5.79-1.41 1.41a.521.521 0 0 1-.359.14h-1.711l-2.69 4.72.02.04z" class="cls-3" data-name="Path 34869"/>
            </g>
            <g id="Group_34148" data-name="Group 34148">
                <path id="Path_34870" d="M72.292 275.689l-1.37 3.42v1.65h.89l3.76-1.88.86-1.51-.83-2.51z" class="cls-4" data-name="Path 34870"/>
                <path id="Path_34871" d="M96.042 264.759l-1.89.95a.455.455 0 0 1-.229.05h-1.731l-1.81 2.73-1.98 5.93a.672.672 0 0 1-.06.12l-1.76 2.65 1.71 5.57h1.3l1.87-4.68a.509.509 0 0 1 .461-.32h2a.531.531 0 0 1 .359.15l1.85 1.85h1.291v-15z" class="cls-4" data-name="Path 34871"/>
            </g>
        </g>
    </g>
</svg>
