<svg xmlns="http://www.w3.org/2000/svg" width="40" height="40" viewBox="0 0 40 40">
    <defs>
        <style>
            .cls-1{fill:#323333}.cls-2{fill:#bababa}.cls-3{fill:#e2e1e1}.cls-4{fill:none}
        </style>
    </defs>
    <g id="ic_stacked2" transform="translate(-121.922 -198.389)">
        <g id="Group_34136" data-name="Group 34136" transform="translate(2 2)">
            <path id="Path_34857" d="M152.923 202.389h-26v-3a1 1 0 1 0-2 0v34a1 1 0 0 0 2 0v-2h12a1.993 1.993 0 0 0 2-2v-5a2 2 0 0 0-2-2h-12v-1h21a1.993 1.993 0 0 0 2-2v-5a2 2 0 0 0-2-2h-21v-1h26a1.993 1.993 0 0 0 2-2v-5a2 2 0 0 0-2-2zm-15.5 22h1.5v5h-1.5zm-3 0h2v5h-2zm-1 0v5h-6.5v-5zm10-10h4.5v5h-4.5zm-11 0h10v5h-10zm-1 0v5h-4.5v-5zm4-5h-8.5v-5h8.5zm12 0h-11v-5h11zm5.5 0h-4.5v-5h4.5z" class="cls-1" data-name="Path 34857"/>
            <g id="Group_34134" data-name="Group 34134">
                <path id="Rectangle_17668" d="M0 0h6.5v5H0z" class="cls-2" data-name="Rectangle 17668" transform="translate(126.923 224.389)"/>
                <path id="Rectangle_17669" d="M0 0h4.5v5H0z" class="cls-2" data-name="Rectangle 17669" transform="translate(126.923 214.389)"/>
                <path id="Rectangle_17670" d="M0 0h8.5v5H0z" class="cls-2" data-name="Rectangle 17670" transform="translate(126.923 204.389)"/>
            </g>
            <g id="Group_34135" data-name="Group 34135">
                <path id="Rectangle_17671" d="M0 0h2v5H0z" class="cls-3" data-name="Rectangle 17671" transform="translate(134.423 224.389)"/>
                <path id="Rectangle_17672" d="M0 0h10v5H0z" class="cls-3" data-name="Rectangle 17672" transform="translate(132.423 214.389)"/>
                <path id="Rectangle_17673" d="M0 0h11v5H0z" class="cls-3" data-name="Rectangle 17673" transform="translate(136.423 204.389)"/>
            </g>
        </g>
        <path id="Rectangle_17674" d="M0 0h40v40H0z" class="cls-4" data-name="Rectangle 17674" transform="translate(121.923 198.389)"/>
    </g>
</svg>
