<svg xmlns="http://www.w3.org/2000/svg" width="40" height="40" viewBox="0 0 40 40">
    <defs>
        <style>
            .cls-1{fill:#323333}.cls-2{fill:#e2e1e1}.cls-3{fill:#bababa}.cls-4{fill:none}
        </style>
    </defs>
    <g id="ic_100stac2" transform="translate(-177.922 -198.389)">
        <g id="Group_34140" data-name="Group 34140" transform="translate(2 2)">
            <path id="Path_34858" d="M182.923 233.389v-2.5h26v2.5a1 1 0 0 0 2 0v-34a1 1 0 0 0-2 0v2.5h-26v-2.5a1 1 0 0 0-2 0v34a1 1 0 0 0 2 0zm0-24.5v-5h5.5v5zm6.5 0v-5h14v5zm15 0v-5h4.5v5zm-21.5 3v-1h26v1zm0 7v-5h3.5v5zm4.5 0v-5h14v5zm15 0v-5h6.5v5zm-19.5 3v-1h26v1zm0 7v-5h7.5v5zm8.5 0v-5h13v5zm14 0v-5h3.5v5z" class="cls-1" data-name="Path 34858"/>
            <g id="Group_34138" data-name="Group 34138">
                <path id="Rectangle_17675" d="M0 0h14v5H0z" class="cls-2" data-name="Rectangle 17675" transform="translate(189.423 203.889)"/>
                <path id="Rectangle_17676" d="M0 0h13v5H0z" class="cls-2" data-name="Rectangle 17676" transform="translate(191.423 223.889)"/>
                <path id="Rectangle_17677" d="M0 0h14v5H0z" class="cls-2" data-name="Rectangle 17677" transform="translate(187.423 213.889)"/>
            </g>
            <g id="Group_34139" data-name="Group 34139">
                <path id="Rectangle_17678" d="M0 0h5.5v5H0z" class="cls-3" data-name="Rectangle 17678" transform="translate(182.923 203.889)"/>
                <path id="Rectangle_17679" d="M0 0h3.5v5H0z" class="cls-3" data-name="Rectangle 17679" transform="translate(182.923 213.889)"/>
                <path id="Rectangle_17680" d="M0 0h7.5v5H0z" class="cls-3" data-name="Rectangle 17680" transform="translate(182.923 223.889)"/>
            </g>
        </g>
        <path id="Rectangle_17681" d="M0 0h40v40H0z" class="cls-4" data-name="Rectangle 17681" transform="translate(177.923 198.389)"/>
    </g>
</svg>
