<svg xmlns="http://www.w3.org/2000/svg" width="40" height="40" viewBox="0 0 40 40">
    <defs>
        <style>
            .cls-1{fill:#323333}.cls-2{fill:#e2e1e1}.cls-3{fill:#bababa}.cls-4{fill:none}
        </style>
    </defs>
    <g id="ic_bar" transform="translate(-65.922 -198.389)">
        <g id="Group_34132" data-name="Group 34132" transform="translate(2 2)">
            <path id="Path_34856" d="M96.923 211.389h-26v-1h19a1.994 1.994 0 0 0 2-2v-5a2 2 0 0 0-2-2h-19v-2a1 1 0 1 0-2 0v34a1 1 0 0 0 2 0v-3h12a1.994 1.994 0 0 0 2-2v-5a2 2 0 0 0-2-2h-12v-1h26a1.994 1.994 0 0 0 2-2v-5a2 2 0 0 0-2-2zm-26-8h19v5h-19zm12 20v5h-12v-5zm14-5h-26v-5h26z" class="cls-1" data-name="Path 34856"/>
            <path id="Rectangle_17665" d="M0 0h19v5H0z" class="cls-2" data-name="Rectangle 17665" transform="translate(70.923 203.389)"/>
            <path id="Rectangle_17666" d="M0 0h26v5H0z" class="cls-3" data-name="Rectangle 17666" transform="translate(70.923 213.389)"/>
        </g>
        <path id="Rectangle_17667" d="M0 0h40v40H0z" class="cls-4" data-name="Rectangle 17667" transform="translate(65.923 198.389)"/>
    </g>
</svg>
