<svg xmlns="http://www.w3.org/2000/svg" width="40" height="40" viewBox="0 0 40 40">
    <defs>
        <style>
            .cls-1{fill:none}.cls-2{fill:#e2e1e1}.cls-3{fill:#323333}
        </style>
    </defs>
    <g id="ic_biplot" transform="translate(-233.922 -254.259)">
        <path id="Rectangle_17687" d="M0 0h40v40H0z" class="cls-1" data-name="Rectangle 17687" transform="translate(233.923 254.259)"/>
        <g id="Group_34157" data-name="Group 34157" transform="translate(2 2)">
            <path id="Rectangle_17686" d="M0 0h12.5v12.5H0z" class="cls-1" data-name="Rectangle 17686" transform="translate(238.923 272.759)"/>
            <path id="Path_34878" d="M265.423 271.759h-13v-13a.5.5 0 0 0-1 0v13h-12.5v1h12.5v12.5h1v-12.5h13a.5.5 0 0 0 0-1z" class="cls-2" data-name="Path 34878"/>
            <g id="Group_34155" data-name="Group 34155">
                <path id="Path_34879" d="M265.923 285.259h-27v-27a1 1 0 0 0-2 0v28a1 1 0 0 0 1 1h28a1 1 0 0 0 0-2z" class="cls-3" data-name="Path 34879"/>
                <path id="Path_34880" d="M242.918 281.755a1.5 1.5 0 0 0 1.5-1.5 1.471 1.471 0 0 0-.11-.56l6.5-5.78a1.986 1.986 0 0 0 2.44-.17l3.22 2.15a1.488 1.488 0 0 0-.05.36 1.5 1.5 0 1 0 1.5-1.5 1.477 1.477 0 0 0-.89.31l-3.22-2.15a2.076 2.076 0 0 0 .11-.66 1.922 1.922 0 0 0-.22-.89l5.5-4.8a1.459 1.459 0 0 0 .72.19 1.5 1.5 0 1 0-1.5-1.5 1.471 1.471 0 0 0 .11.56l-5.48 4.79a1.99 1.99 0 0 0-1.13-.35.587.587 0 0 0-.13.02l-1.89-5.67a1.09 1.09 0 0 0-.08-.15 1.5 1.5 0 0 0-.9-2.7 1.5 1.5 0 0 0 0 3h.01a.5.5 0 0 0 .02.17l1.89 5.66a2.058 2.058 0 0 0-.74.86l-2.59-.43a.4.4 0 0 0-.11 0 1.5 1.5 0 1 0-1.48 1.74 1.484 1.484 0 0 0 1.32-.79c.03.01.07.03.1.04l2.6.43a2.2 2.2 0 0 0 .21.73l-6.51 5.79a1.437 1.437 0 0 0-.72-.2 1.5 1.5 0 0 0 0 3zm15-6a.5.5 0 0 1 .5.5.5.5 0 0 1-.5.5.5.5 0 0 1-.5-.5.508.508 0 0 1 .5-.5zm2-11a.5.5 0 0 1 .5.5.5.5 0 0 1-.5.5.5.5 0 0 1-.5-.5.508.508 0 0 1 .5-.5zm-11-1a.5.5 0 0 1-.5-.5.508.508 0 0 1 .5-.5.5.5 0 0 1 .5.5.5.5 0 0 1-.5.5zm-3 8a.5.5 0 0 1-.5-.5.508.508 0 0 1 .5-.5.5.5 0 0 1 .5.5.5.5 0 0 1-.5.5zm-3 8a.5.5 0 0 1 .5.5.5.5 0 0 1-.5.5.5.5 0 0 1-.5-.5.508.508 0 0 1 .5-.5z" class="cls-3" data-name="Path 34880"/>
            </g>
            <g id="Group_34156" data-name="Group 34156">
                <circle id="Ellipse_1296" cx=".5" cy=".5" r=".5" class="cls-2" data-name="Ellipse 1296" transform="translate(257.418 275.755)"/>
                <circle id="Ellipse_1297" cx=".5" cy=".5" r=".5" class="cls-2" data-name="Ellipse 1297" transform="translate(242.418 279.755)"/>
                <circle id="Ellipse_1298" cx=".5" cy=".5" r=".5" class="cls-2" data-name="Ellipse 1298" transform="translate(245.418 270.755)"/>
                <circle id="Ellipse_1299" cx=".5" cy=".5" r=".5" class="cls-2" data-name="Ellipse 1299" transform="translate(248.418 262.755)"/>
                <circle id="Ellipse_1300" cx=".5" cy=".5" r=".5" class="cls-2" data-name="Ellipse 1300" transform="translate(259.418 264.755)"/>
            </g>
        </g>
    </g>
</svg>
