<svg xmlns="http://www.w3.org/2000/svg" width="40" height="40" viewBox="0 0 40 40">
    <defs>
        <style>
            .cls-1{fill:none}.cls-2{fill:#323333}.cls-3{fill:#bababa}.cls-4{fill:#e2e1e1}
        </style>
    </defs>
    <g id="ic_boxplot" transform="translate(-177.922 -86.389)">
        <path id="Rectangle_17645" d="M0 0h40v40H0z" class="cls-1" data-name="Rectangle 17645" transform="translate(177.923 86.389)"/>
        <g id="Group_34117" data-name="Group 34117" transform="translate(1.998 2.002)">
            <path id="Path_34846" d="M191.925 92.391h-1.5v-2h1a1 1 0 0 0 0-2h-4a1 1 0 0 0 0 2h1v2h-1.5a3 3 0 0 0-3 3v12a3 3 0 0 0 3 3h1.5v8h-1a1 1 0 0 0 0 2h4a1 1 0 0 0 0-2h-1v-8h1.5a3 3 0 0 0 3-3v-12a3 3 0 0 0-3-3zm-5 2h5a1 1 0 0 1 1 1v8.5h-7v-8.5a1 1 0 0 1 1-1zm5 14h-5a1 1 0 0 1-1-1v-2.5h7v2.5a1 1 0 0 1-1 1z" class="cls-2" data-name="Path 34846"/>
            <path id="Path_34847" d="M204.92 98.387h-1.5v-8h1a1 1 0 0 0 0-2h-4a1 1 0 0 0 0 2h1v8h-1.5a3.009 3.009 0 0 0-3 3v12a3 3 0 0 0 3 3h1.5v2h-1a1 1 0 0 0 0 2h4a1 1 0 0 0 0-2h-1v-2h1.5a3 3 0 0 0 3-3v-12a3 3 0 0 0-3-3zm1 15a.99.99 0 0 1-1 1h-5a1 1 0 0 1-1-1v-4h7zm0-6h-7v-6a1 1 0 0 1 1-1h5a1 1 0 0 1 1 1z" class="cls-2" data-name="Path 34847"/>
            <path id="Path_34848" d="M205.92 109.387v4a.99.99 0 0 1-1 1h-5a1 1 0 0 1-1-1v-4z" class="cls-3" data-name="Path 34848"/>
            <path id="Path_34849" d="M205.92 101.387v6h-7v-6a1 1 0 0 1 1-1h5a1 1 0 0 1 1 1z" class="cls-4" data-name="Path 34849"/>
        </g>
    </g>
</svg>
