<svg xmlns="http://www.w3.org/2000/svg" width="40" height="40" viewBox="0 0 40 40">
    <defs>
        <style>
            .cls-1{fill:none}.cls-2{fill:#e2e1e1}.cls-3{fill:#bababa}.cls-4{fill:#323333}
        </style>
    </defs>
    <g id="ic_bubble" transform="translate(-121.922 -366.259)">
        <path id="Rectangle_17700" d="M0 0h40v40H0z" class="cls-1" data-name="Rectangle 17700" transform="translate(121.923 366.259)"/>
        <g id="Group_34175" data-name="Group 34175" transform="translate(2 2)">
            <path id="Rectangle_17699" d="M0 0h12.5v12.5H0z" class="cls-1" data-name="Rectangle 17699" transform="translate(126.923 384.759)"/>
            <path id="Path_34891" d="M139.423 384.759v12.5h1v-12.5h13a.5.5 0 1 0 0-1h-13v-13a.5.5 0 0 0-1 0v13h-12.5v1z" class="cls-2" data-name="Path 34891"/>
            <path id="Path_34892" d="M141.418 383.485a5.055 5.055 0 1 1-5.05-5.06 5.055 5.055 0 0 1 5.05 5.06z" class="cls-3" data-name="Path 34892"/>
            <circle id="Ellipse_1306" cx="1.5" cy="1.5" r="1.5" class="cls-2" data-name="Ellipse 1306" transform="translate(144.788 373.385)"/>
            <g id="Group_34174" data-name="Group 34174">
                <path id="Path_34893" d="M153.923 397.259h-27v-27a1 1 0 0 0-2 0v28a1 1 0 0 0 1 1h28a1 1 0 1 0 0-2z" class="cls-4" data-name="Path 34893"/>
                <path id="Path_34894" d="M136.368 389.535a6.055 6.055 0 1 0-6.06-6.05 6.052 6.052 0 0 0 6.06 6.05zm0-11.11a5.055 5.055 0 1 1-5.06 5.06 5.057 5.057 0 0 1 5.06-5.06z" class="cls-4" data-name="Path 34894"/>
                <path id="Path_34895" d="M146.288 377.385a2.5 2.5 0 1 0-2.5-2.5 2.5 2.5 0 0 0 2.5 2.5zm0-4a1.5 1.5 0 1 1-1.5 1.5 1.5 1.5 0 0 1 1.5-1.5z" class="cls-4" data-name="Path 34895"/>
                <path id="Path_34896" d="M144.288 390.925a3.5 3.5 0 1 0 3.5-3.5 3.5 3.5 0 0 0-3.5 3.5zm6 0a2.5 2.5 0 1 1-2.5-2.5 2.5 2.5 0 0 1 2.5 2.5z" class="cls-4" data-name="Path 34896"/>
            </g>
        </g>
    </g>
</svg>
