<svg xmlns="http://www.w3.org/2000/svg" width="40" height="40" viewBox="0 0 40 40">
    <defs>
        <style>
            .cls-1{fill:none}.cls-2{fill:#323333}.cls-3{fill:#bababa}.cls-4{fill:#e2e1e1}
        </style>
    </defs>
    <g id="ic_card" transform="translate(-121.922 -478.259)">
        <path id="Rectangle_17727" d="M0 0h40v40H0z" class="cls-1" data-name="Rectangle 17727" transform="translate(121.923 478.259)"/>
        <g id="Group_34207" data-name="Group 34207" transform="translate(1.988 1.988)">
            <g id="Group_34202" data-name="Group 34202">
                <path id="Path_34938" d="M153.029 512.247h-26.213a2.885 2.885 0 0 1-2.882-2.881v-26.213a2.885 2.885 0 0 1 2.882-2.882h26.213a2.885 2.885 0 0 1 2.882 2.882v26.213a2.885 2.885 0 0 1-2.882 2.881zm-26.213-29.976a.883.883 0 0 0-.882.882v26.213a.883.883 0 0 0 .882.881h26.213a.883.883 0 0 0 .882-.881v-26.213a.883.883 0 0 0-.882-.882z" class="cls-2" data-name="Path 34938"/>
            </g>
            <g id="Group_34203" data-name="Group 34203">
                <path id="Rectangle_17723" d="M0 0h9.935v9.921H0z" class="cls-3" data-name="Rectangle 17723" transform="translate(128.647 497.73)"/>
            </g>
            <g id="Group_34204" data-name="Group 34204">
                <path id="Rectangle_17724" d="M0 0h9.904v9.917H0z" class="cls-3" data-name="Rectangle 17724" transform="translate(141.293 484.869)"/>
            </g>
            <g id="Group_34205" data-name="Group 34205">
                <path id="Rectangle_17725" d="M0 0h9.935v9.923H0z" class="cls-4" data-name="Rectangle 17725" transform="translate(128.647 484.866)"/>
            </g>
            <g id="Group_34206" data-name="Group 34206">
                <path id="Rectangle_17726" d="M0 0h9.938v9.921H0z" class="cls-3" data-name="Rectangle 17726" transform="translate(141.26 497.73)"/>
            </g>
        </g>
    </g>
</svg>
