<svg xmlns="http://www.w3.org/2000/svg" width="40" height="40" viewBox="0 0 40 40">
    <defs>
        <style>
            .cls-1{fill:none}.cls-2{fill:#323333}.cls-3{fill:#e2e1e1}.cls-4{fill:#bababa}
        </style>
    </defs>
    <g id="ic_column" transform="translate(-65.922 -142.389)">
        <path id="Rectangle_17649" d="M0 0h40v40H0z" class="cls-1" data-name="Rectangle 17649" transform="translate(65.923 142.389)"/>
        <g id="Group_34120" data-name="Group 34120" transform="translate(2 2)">
            <path id="Path_34850" d="M100.923 173.389h-3v-12a2 2 0 0 0-2-2h-5a2.005 2.005 0 0 0-2 2v12h-1v-26a2 2 0 0 0-2-2h-5a2.005 2.005 0 0 0-2 2v26h-1v-19a2 2 0 0 0-2-2h-5a2.005 2.005 0 0 0-2 2v19h-2a1 1 0 0 0 0 2h34a1 1 0 0 0 0-2zm-25 0h-5v-19h5zm10 0h-5v-26h5zm10 0h-5v-12h5z" class="cls-2" data-name="Path 34850"/>
            <path id="Rectangle_17647" d="M0 0h5v26H0z" class="cls-3" data-name="Rectangle 17647" transform="translate(80.923 147.389)"/>
            <path id="Rectangle_17648" d="M0 0h5v12H0z" class="cls-4" data-name="Rectangle 17648" transform="translate(90.923 161.389)"/>
        </g>
    </g>
</svg>
