<svg xmlns="http://www.w3.org/2000/svg" width="40" height="40" viewBox="0 0 40 40">
    <defs>
        <style>
            .cls-1{fill:none}.cls-2{fill:#323333}.cls-3{fill:#bababa}.cls-4{fill:#e2e1e1}
        </style>
    </defs>
    <g id="ic_stacked1" transform="translate(-121.922 -142.389)">
        <path id="Rectangle_17656" d="M0 0h40v40H0z" class="cls-1" data-name="Rectangle 17656" transform="translate(121.923 142.389)"/>
        <g id="Group_34124" data-name="Group 34124" transform="translate(2)">
            <path id="Path_34851" d="M156.923 173.389h-2v-12a2 2 0 0 0-2-2h-5a2.005 2.005 0 0 0-2 2v12h-1v-21a2 2 0 0 0-2-2h-5a2.005 2.005 0 0 0-2 2v21h-1v-26a2 2 0 0 0-2-2h-5a2.005 2.005 0 0 0-2 2v26h-3a1 1 0 1 0 0 2h34a1 1 0 0 0 0-2zm-24 0h-5v-8.5h5zm0-9.5h-5v-11h5zm0-12h-5v-4.5h5zm10 21.5h-5v-4.5h5zm0-5.5h-5v-10h5zm0-11h-5v-4.5h5zm10 16.5h-5v-6.5h5zm0-7.5h-5v-2h5zm0-3h-5v-1.5h5z" class="cls-2" data-name="Path 34851"/>
            <g id="Group_34122" data-name="Group 34122">
                <path id="Rectangle_17650" d="M0 0h5v6.5H0z" class="cls-3" data-name="Rectangle 17650" transform="translate(147.923 166.889)"/>
                <path id="Rectangle_17651" d="M0 0h5v4.5H0z" class="cls-3" data-name="Rectangle 17651" transform="translate(137.923 168.889)"/>
                <path id="Rectangle_17652" d="M0 0h5v8.5H0z" class="cls-3" data-name="Rectangle 17652" transform="translate(127.923 164.889)"/>
            </g>
            <g id="Group_34123" data-name="Group 34123">
                <path id="Rectangle_17653" d="M0 0h5v2H0z" class="cls-4" data-name="Rectangle 17653" transform="translate(147.923 163.889)"/>
                <path id="Rectangle_17654" d="M0 0h5v10H0z" class="cls-4" data-name="Rectangle 17654" transform="translate(137.923 157.889)"/>
                <path id="Rectangle_17655" d="M0 0h5v11H0z" class="cls-4" data-name="Rectangle 17655" transform="translate(127.923 152.889)"/>
            </g>
        </g>
    </g>
</svg>
