<svg xmlns="http://www.w3.org/2000/svg" width="40" height="40" viewBox="0 0 40 40">
    <defs>
        <style>
            .cls-1{fill:none}.cls-2{fill:#323333}.cls-3{fill:#e2e1e1}.cls-4{fill:#bababa}
        </style>
    </defs>
    <g id="ic_100stac1" transform="translate(-177.922 -142.389)">
        <path id="Rectangle_17663" d="M0 0h40v40H0z" class="cls-1" data-name="Rectangle 17663" transform="translate(177.923 142.389)"/>
        <g id="Group_34128" data-name="Group 34128" transform="translate(2 2)">
            <path id="Path_34852" d="M212.923 173.389h-2.5v-26h2.5a1 1 0 0 0 0-2h-34a1 1 0 0 0 0 2h2.5v26h-2.5a1 1 0 0 0 0 2h34a1 1 0 0 0 0-2zm-24.5 0h-5v-5.5h5zm0-6.5h-5v-14h5zm0-15h-5v-4.5h5zm3 21.5h-1v-26h1zm7 0h-5v-3.5h5zm0-4.5h-5v-14h5zm0-15h-5v-6.5h5zm3 19.5h-1v-26h1zm7 0h-5v-7.5h5zm0-8.5h-5v-13h5zm0-14h-5v-3.5h5z" class="cls-2" data-name="Path 34852"/>
            <g id="Group_34126" data-name="Group 34126">
                <path id="Rectangle_17657" d="M0 0h5v14H0z" class="cls-3" data-name="Rectangle 17657" transform="translate(183.423 152.889)"/>
                <path id="Rectangle_17658" d="M0 0h5v13H0z" class="cls-3" data-name="Rectangle 17658" transform="translate(203.423 151.889)"/>
                <path id="Rectangle_17659" d="M0 0h5v14H0z" class="cls-3" data-name="Rectangle 17659" transform="translate(193.423 154.889)"/>
            </g>
            <g id="Group_34127" data-name="Group 34127">
                <path id="Rectangle_17660" d="M0 0h5v5.5H0z" class="cls-4" data-name="Rectangle 17660" transform="translate(183.423 167.889)"/>
                <path id="Rectangle_17661" d="M0 0h5v3.5H0z" class="cls-4" data-name="Rectangle 17661" transform="translate(193.423 169.889)"/>
                <path id="Rectangle_17662" d="M0 0h5v7.5H0z" class="cls-4" data-name="Rectangle 17662" transform="translate(203.423 165.889)"/>
            </g>
        </g>
    </g>
</svg>
