<svg xmlns="http://www.w3.org/2000/svg" width="40" height="40" viewBox="0 0 40 40">
    <defs>
        <style>
            .cls-1{fill:none}.cls-2{fill:#bababa}.cls-3{fill:#e2e1e1}.cls-4{fill:#323333}
        </style>
    </defs>
    <g id="ic_complex" transform="translate(-233.922 -422.259)">
        <path id="Rectangle_17716" d="M0 0h40v40H0z" class="cls-1" data-name="Rectangle 17716" transform="translate(233.923 422.259)"/>
        <g id="Group_34197" data-name="Group 34197" transform="translate(2 1.537)">
            <path id="Rectangle_17714" d="M0 0h5v6.11H0z" class="cls-2" data-name="Rectangle 17714" transform="translate(238.923 447.676)"/>
            <path id="Rectangle_17715" d="M0 0h5v18.78H0z" class="cls-3" data-name="Rectangle 17715" transform="translate(258.923 435.006)"/>
            <g id="Group_34196" data-name="Group 34196">
                <path id="Path_34927" d="M268.923 453.8h-3v-18.79a2 2 0 0 0-2-2h-5a2.006 2.006 0 0 0-2 2v18.79h-1v-11.79a2 2 0 0 0-2-2h-5a2.006 2.006 0 0 0-2 2v11.79h-1v-6.12a2 2 0 0 0-2-2h-5a2.006 2.006 0 0 0-2 2v6.12h-2a1 1 0 0 0 0 2h34a1 1 0 0 0 0-2zm-25-.01h-5v-6.11h5zm10 0h-5v-11.78h5zm10 0h-5v-18.78h5z" class="cls-4" data-name="Path 34927"/>
                <path id="Path_34928" d="M238.692 441.528a.492.492 0 0 0 .271-.08l22.946-14.782-.481 1.129a.5.5 0 0 0 .92.392l1.059-2.486a.62.62 0 0 0-.543-.86l-2.7-.119a.521.521 0 0 0-.522.479.5.5 0 0 0 .478.521l1.317.058-23.018 14.828a.5.5 0 0 0 .271.92z" class="cls-4" data-name="Path 34928"/>
            </g>
        </g>
    </g>
</svg>
