<svg xmlns="http://www.w3.org/2000/svg" width="40" height="40" viewBox="0 0 40 40">
    <defs>
        <style>
            .cls-1{fill:none}.cls-2{fill:#e2e1e1}.cls-3{fill:#323333}.cls-4{fill:#bababa}
        </style>
    </defs>
    <g id="ic_map" transform="translate(-65.922 -478.259)">
        <path id="Rectangle_17722" d="M0 0h40v40H0z" class="cls-1" data-name="Rectangle 17722" transform="translate(65.923 478.259)"/>
        <g id="Group_34200" data-name="Group 34200" transform="translate(1.987 2.01)">
            <path id="Rectangle_17717" d="M0 0h5.765v6.781H0z" class="cls-1" data-name="Rectangle 17717" transform="translate(92.145 499)"/>
            <path id="Path_34929" d="M82.821 482.249H70.713a.771.771 0 0 0-.778.781V498h12.886z" class="cls-1" data-name="Path 34929"/>
            <path id="Rectangle_17718" d="M0 0h7.324v15.751H0z" class="cls-1" data-name="Rectangle 17718" transform="translate(83.821 482.249)"/>
            <path id="Path_34930" d="M97.91 498v-14.97a.781.781 0 0 0-.778-.781h-4.987V498z" class="cls-1" data-name="Path 34930"/>
            <path id="Rectangle_17719" d="M0 0h12.886v6.781H0z" class="cls-1" data-name="Rectangle 17719" transform="translate(69.935 499)"/>
            <path id="Path_34931" d="M69.935 506.781v2.707a.771.771 0 0 0 .778.781h12.108v-3.488z" class="cls-1" data-name="Path 34931"/>
            <path id="Rectangle_17720" d="M0 0h7.324v3.488H0z" class="cls-1" data-name="Rectangle 17720" transform="translate(83.821 506.781)"/>
            <path id="Path_34932" d="M92.145 510.269h4.987a.78.78 0 0 0 .778-.781v-2.707h-5.765z" class="cls-1" data-name="Path 34932"/>
            <path id="Rectangle_17721" d="M0 0h7.324v6.781H0z" class="cls-1" data-name="Rectangle 17721" transform="translate(83.821 499)"/>
            <path id="Path_34933" d="M82.821 499v6.781H69.935v1h12.886v3.488h1v-3.488h7.324v3.488h1v-3.488h5.765v-1h-5.765V499h5.765v-1h-5.765v-15.751h-1V498h-7.324v-15.751h-1V498H69.935v1zm1 0h7.324v6.781h-7.324z" class="cls-2" data-name="Path 34933"/>
            <g id="Group_34199" data-name="Group 34199">
                <path id="Path_34934" d="M97.132 480.249H70.713a2.783 2.783 0 0 0-2.778 2.781v26.458a2.783 2.783 0 0 0 2.778 2.781h26.419a2.783 2.783 0 0 0 2.778-2.781V483.03a2.783 2.783 0 0 0-2.778-2.781zM97.91 498v11.488a.78.78 0 0 1-.778.781H70.713a.771.771 0 0 1-.778-.781V483.03a.771.771 0 0 1 .778-.781h26.419a.781.781 0 0 1 .778.781z" class="cls-3" data-name="Path 34934"/>
                <path id="Path_34935" d="M91.068 490.378a6 6 0 0 0-3.82-1.37 6.507 6.507 0 0 0-1.16.11 6.041 6.041 0 0 0-4.48 3.9 5.765 5.765 0 0 0 .41 4.82l4.07 6.01a1.408 1.408 0 0 0 2.32 0l4.1-6.05a5.908 5.908 0 0 0-1.44-7.42zm.59 6.9l-4.08 6a.4.4 0 0 1-.66 0l-4.05-5.95a4.8 4.8 0 0 1-.32-3.98 5.119 5.119 0 0 1 1.46-2.13 4.768 4.768 0 0 1 2.27-1.12 5.2 5.2 0 0 1 .96-.09 4.982 4.982 0 0 1 5 4.98 4.957 4.957 0 0 1-.58 2.29z" class="cls-3" data-name="Path 34935"/>
                <path id="Path_34936" d="M87.248 492.088a2.9 2.9 0 0 0-1.05 5.61 2.856 2.856 0 0 0 2.1 0h.01a2.9 2.9 0 0 0-1.06-5.61zm.69 4.68a1.931 1.931 0 0 1-1.38 0 1.91 1.91 0 1 1 1.38 0z" class="cls-3" data-name="Path 34936"/>
            </g>
            <path id="Path_34937" d="M90.428 491.148a5.024 5.024 0 0 0-3.19-1.14 5.2 5.2 0 0 0-.96.09 4.768 4.768 0 0 0-2.27 1.12 5.119 5.119 0 0 0-1.46 2.13 4.8 4.8 0 0 0 .32 3.98l4.05 5.95a.4.4 0 0 0 .66 0l4.08-6a4.92 4.92 0 0 0-1.23-6.13zm-2.12 6.55H88.3a2.856 2.856 0 0 1-2.1 0 2.905 2.905 0 1 1 2.11 0z" class="cls-4" data-name="Path 34937"/>
        </g>
    </g>
</svg>
