<svg xmlns="http://www.w3.org/2000/svg" width="40" height="40" viewBox="0 0 40 40">
    <defs>
        <style>
            .cls-1{fill:none}.cls-2{fill:#323333}.cls-3{fill:#e2e1e1}.cls-4{fill:#bababa}
        </style>
    </defs>
    <g id="ic_decision" transform="translate(-177.922 -366.259)">
        <path id="Rectangle_17704" d="M0 0h40v40H0z" class="cls-1" data-name="Rectangle 17704" transform="translate(177.923 366.259)"/>
        <g id="Group_34178" data-name="Group 34178" transform="translate(1.974 1.984)">
            <path id="Path_34897" d="M211.408 390.914h-2.17v-4.09a1.355 1.355 0 0 0-1.27-1.42h-11.55v-5.13h3.31a1.768 1.768 0 0 0 1.7-1.83V371.1a1.768 1.768 0 0 0-1.7-1.83h-7.61a1.768 1.768 0 0 0-1.7 1.83v7.34a1.768 1.768 0 0 0 1.7 1.83h3.3v5.13h-11.54a1.355 1.355 0 0 0-1.27 1.42v4.09h-2.18a1.535 1.535 0 0 0-1.48 1.59v5.15a1.535 1.535 0 0 0 1.48 1.59h5.35a1.537 1.537 0 0 0 1.49-1.59v-5.15a1.537 1.537 0 0 0-1.49-1.59h-2.17v-4.09c0-.24.14-.42.27-.42h11.54v4.51h-2.17a1.543 1.543 0 0 0-1.49 1.59v5.15a1.543 1.543 0 0 0 1.49 1.59h5.35a1.543 1.543 0 0 0 1.49-1.59v-5.15a1.543 1.543 0 0 0-1.49-1.59h-2.18v-4.51h11.55c.13 0 .27.18.27.42v4.09h-2.18a1.535 1.535 0 0 0-1.48 1.59v5.15a1.535 1.535 0 0 0 1.48 1.59h5.35a1.543 1.543 0 0 0 1.49-1.59v-5.15a1.543 1.543 0 0 0-1.49-1.586zm-26.14 2v4.33h-4.32v-4.33zm12.82 0v4.33h-4.33v-4.33zm-5.67-14.64v-7h7.01v7zm18.48 18.97h-4.32v-4.33h4.32z" class="cls-2" data-name="Path 34897"/>
            <g id="Group_34177" data-name="Group 34177">
                <path id="Rectangle_17701" d="M0 0h4.32v4.33H0z" class="cls-3" data-name="Rectangle 17701" transform="translate(180.948 392.914)"/>
                <path id="Rectangle_17702" d="M0 0h4.32v4.33H0z" class="cls-3" data-name="Rectangle 17702" transform="translate(206.578 392.914)"/>
            </g>
            <path id="Rectangle_17703" d="M0 0h7.01v7H0z" class="cls-4" data-name="Rectangle 17703" transform="translate(192.418 371.274)"/>
        </g>
    </g>
</svg>
