<svg xmlns="http://www.w3.org/2000/svg" width="40" height="40" viewBox="0 0 40 40">
    <defs>
        <style>
            .cls-1{fill:none}.cls-2{fill:#323333}.cls-3{fill:#e2e1e1}.cls-4{fill:#bababa}
        </style>
    </defs>
    <g id="ic_dendrogram" transform="translate(-233.922 -366.259)">
        <path id="Rectangle_17706" d="M0 0h40v40H0z" class="cls-1" data-name="Rectangle 17706" transform="translate(233.923 366.259)"/>
        <g id="Group_34181" data-name="Group 34181" transform="translate(1.779 2.21)">
            <path id="Path_34898" d="M264.513 392.139v-7.19a1.39 1.39 0 0 0-1.3-1.46h-7.93v-3.44h3.3a1.768 1.768 0 0 0 1.7-1.83v-7.34a1.768 1.768 0 0 0-1.7-1.83h-7.61a1.768 1.768 0 0 0-1.7 1.83v7.34a1.768 1.768 0 0 0 1.7 1.83h3.31v3.44h-7.94a1.382 1.382 0 0 0-1.29 1.46v3.16h-4.41a1.383 1.383 0 0 0-1.3 1.46v2.57a3.69 3.69 0 1 0 1 0v-2.57c0-.27.15-.46.3-.46h10.48c.14 0 .3.19.3.46v2.57a3.69 3.69 0 1 0 1 0v-2.57a1.383 1.383 0 0 0-1.3-1.46h-5.07v-3.16c0-.27.15-.46.29-.46h16.87c.14 0 .3.19.3.46v7.19a3.69 3.69 0 1 0 1 0zm-22.98 3.64a1.7 1.7 0 1 1-1.7-1.69 1.7 1.7 0 0 1 1.7 1.69zm12.08 0a1.69 1.69 0 1 1-1.69-1.69 1.694 1.694 0 0 1 1.69 1.69zm-2.34-17.73v-7h7.01v7zm12.74 19.42a1.69 1.69 0 1 1 1.69-1.69 1.7 1.7 0 0 1-1.69 1.69z" class="cls-2" data-name="Path 34898"/>
            <g id="Group_34180" data-name="Group 34180">
                <path id="Path_34899" d="M239.833 394.089a1.69 1.69 0 1 0 1.7 1.69 1.694 1.694 0 0 0-1.7-1.69z" class="cls-3" data-name="Path 34899"/>
                <path id="Path_34900" d="M264.013 394.089a1.69 1.69 0 1 0 1.69 1.69 1.7 1.7 0 0 0-1.69-1.69z" class="cls-3" data-name="Path 34900"/>
            </g>
            <path id="Rectangle_17705" d="M0 0h7.01v7H0z" class="cls-4" data-name="Rectangle 17705" transform="translate(251.273 371.049)"/>
        </g>
    </g>
</svg>
