<svg xmlns="http://www.w3.org/2000/svg" width="40" height="40" viewBox="0 0 40 40">
    <defs>
        <style>
            .cls-1{fill:none}.cls-2{fill:#323333}.cls-3{fill:#bababa}.cls-4{fill:#303333}.cls-5{fill:#e2e1e1}
        </style>
    </defs>
    <g id="ic_donut" transform="translate(-177.922 -478.259)">
        <path id="Rectangle_17728" d="M0 0h40v40H0z" class="cls-1" data-name="Rectangle 17728" transform="translate(177.923 478.259)"/>
        <g id="Group_34209" data-name="Group 34209" transform="translate(2.375 2.42)">
            <path id="Path_34939" d="M198.318 478.839h-.5v10.25h.5a4.817 4.817 0 0 1 4.84 4.74l.01.49H213.3v-.5a15 15 0 0 0-14.982-14.98zm5.81 14.48a5.8 5.8 0 0 0-5.31-5.21v-8.26a14 14 0 0 1 13.48 13.47z" class="cls-2" data-name="Path 34939"/>
            <path id="Path_34940" d="M212.3 493.319h-8.17a5.8 5.8 0 0 0-5.31-5.21v-8.26a14 14 0 0 1 13.48 13.47z" class="cls-3" data-name="Path 34940"/>
            <path id="Path_34941" d="M194.548 503.37a5.693 5.693 0 0 1-1-11.3v-8.36a14 14 0 1 0 9.808 24.828l-5.435-6.306a5.638 5.638 0 0 1-3.373 1.138z" class="cls-1" data-name="Path 34941"/>
            <path id="Path_34942" d="M208.481 498.557h-8.307a5.661 5.661 0 0 1-1.5 3.014l5.384 6.246a14.113 14.113 0 0 0 4.423-9.26z" class="cls-1" data-name="Path 34942"/>
            <path id="Path_34943" d="M210.538 497.539a.992.992 0 0 0-1-.98h-10.31a.982.982 0 0 0-.71.3 1.013 1.013 0 0 0-.29.72c0 .04.01.08.01.1a3.69 3.69 0 1 1-3.69-3.7 1 1 0 0 0 1-1v-10.3a1 1 0 0 0-1-1 16 16 0 1 0 16 16v-.12a.035.035 0 0 0-.01-.02zm-15.99 14.14a14 14 0 0 1-1-27.97v8.36a5.695 5.695 0 0 0 1 11.3 5.622 5.622 0 0 0 3.37-1.13l5.44 6.3a13.91 13.91 0 0 1-8.81 3.14zm9.51-3.86l-5.39-6.25a5.687 5.687 0 0 0 1.51-3.01h8.3a14.082 14.082 0 0 1-4.42 9.26z" class="cls-4" data-name="Path 34943"/>
            <path id="Path_34944" d="M208.478 498.559a14.082 14.082 0 0 1-4.42 9.26l-5.39-6.25a5.687 5.687 0 0 0 1.51-3.01z" class="cls-5" data-name="Path 34944"/>
        </g>
    </g>
</svg>
