<svg xmlns="http://www.w3.org/2000/svg" width="40" height="40" viewBox="0 0 40 40">
    <defs>
        <style>
            .cls-1{fill:none}.cls-2{fill:#e2e1e1}.cls-3{fill:#bababa}.cls-4{fill:#323333}
        </style>
    </defs>
    <g id="ic_heatmap1" transform="translate(-65.922 -310.259)">
        <path id="Rectangle_17690" d="M0 0h40v40H0z" class="cls-1" data-name="Rectangle 17690" transform="translate(65.923 310.259)"/>
        <g id="Group_34161" data-name="Group 34161" transform="translate(2 2)">
            <g id="Group_34159" data-name="Group 34159">
                <path id="Rectangle_17688" d="M0 0h7v6H0z" class="cls-2" data-name="Rectangle 17688" transform="translate(83.922 335.259)"/>
                <path id="Path_34881" d="M90.922 321.259v-6h-7v6h-7v7h-6v13h6v-6h7v-7h13v-7z" class="cls-2" data-name="Path 34881"/>
            </g>
            <g id="Group_34160" data-name="Group 34160">
                <path id="Path_34882" d="M70.923 328.259h6v-7h7v-6h-13z" class="cls-3" data-name="Path 34882"/>
                <path id="Rectangle_17689" d="M0 0h6v6H0z" class="cls-3" data-name="Rectangle 17689" transform="translate(90.922 315.259)"/>
            </g>
            <path id="Path_34883" d="M68.923 313.259v30h30v-30zm28 8v20h-26v-26h26z" class="cls-4" data-name="Path 34883"/>
        </g>
    </g>
</svg>
