<svg xmlns="http://www.w3.org/2000/svg" width="40" height="40" viewBox="0 0 40 40">
    <defs>
        <style>
            .cls-1{fill:none}.cls-2{fill:#323333}.cls-3{fill:#fff}.cls-4{fill:#e2e1e1}.cls-5{fill:#bababa}
        </style>
    </defs>
    <g id="ic_histogram" transform="translate(-121.922 -86.389)">
        <path id="Rectangle_17644" d="M0 0h40v40H0z" class="cls-1" data-name="Rectangle 17644" transform="translate(121.923 86.389)"/>
        <g id="Group_34115" data-name="Group 34115" transform="translate(2 1.75)">
            <path id="Path_34841" d="M156.923 118.139h-1.5v-10a2.507 2.507 0 0 0-2.5-2.5h-4.5v-14.5a2.507 2.507 0 0 0-2.5-2.5h-5a2.514 2.514 0 0 0-2.5 2.5v4.5h-4.5a2.514 2.514 0 0 0-2.5 2.5v4.5h-4.5a2.514 2.514 0 0 0-2.5 2.5v13h-1.5a1 1 0 0 0 0 2h34a1 1 0 0 0 0-2zm-24.5-.5h-6v-12.5a.507.507 0 0 1 .5-.5h5.5zm7 0h-6v-19.5a.507.507 0 0 1 .5-.5h5.5zm7 0h-6v-26.5a.507.507 0 0 1 .5-.5h5a.5.5 0 0 1 .5.5zm7 0h-6v-10h5.5a.5.5 0 0 1 .5.5z" class="cls-2" data-name="Path 34841"/>
            <path id="Path_34842" d="M132.423 104.639v13h-6v-12.5a.507.507 0 0 1 .5-.5z" class="cls-3" data-name="Path 34842"/>
            <path id="Path_34843" d="M139.423 97.639v20h-6v-19.5a.507.507 0 0 1 .5-.5z" class="cls-3" data-name="Path 34843"/>
            <path id="Path_34844" d="M146.423 91.139v26.5h-6v-26.5a.507.507 0 0 1 .5-.5h5a.5.5 0 0 1 .5.5z" class="cls-4" data-name="Path 34844"/>
            <path id="Path_34845" d="M153.423 108.139v9.5h-6v-10h5.5a.5.5 0 0 1 .5.5z" class="cls-5" data-name="Path 34845"/>
        </g>
    </g>
</svg>
