<svg xmlns="http://www.w3.org/2000/svg" width="40" height="40" viewBox="0 0 40 40">
    <defs>
        <style>
            .cls-1{fill:none}.cls-2{fill:#e2e1e1}.cls-3{fill:#bababa}.cls-4{fill:#323333}
        </style>
    </defs>
    <g id="ic_imagegrid" transform="translate(-233.922 -478.259)">
        <path id="Rectangle_17733" d="M0 0h40v40H0z" class="cls-1" data-name="Rectangle 17733" transform="translate(233.923 478.259)"/>
        <g id="Group_34211" data-name="Group 34211" transform="translate(1.988 2.01)">
            <path id="Path_34945" d="M238.205 495.72h13.217v-13.156h-13.215zm6.863-8.422a2.115 2.115 0 1 1-2.12 2.12 2.121 2.121 0 0 1 2.12-2.118z" class="cls-2" data-name="Path 34945"/>
            <path id="Path_34946" d="M252.422 496.8V510h13.218v-13.2zm4.526 8.068l1.84-3.19 1.83 3.19z" class="cls-3" data-name="Path 34946"/>
            <path id="Path_34947" d="M265.132 480.249h-26.42a2.783 2.783 0 0 0-2.778 2.782v26.458a2.782 2.782 0 0 0 2.778 2.78h26.42a2.783 2.783 0 0 0 2.779-2.78v-26.458a2.784 2.784 0 0 0-2.779-2.782zm-13.71 2.315v13.156h-13.217v-13.156zm0 27.435H238.2V496.8h13.218zm14.218 0h-13.218V496.8h13.218zm0-14.279h-13.218v-13.156h13.218z" class="cls-4" data-name="Path 34947"/>
            <path id="Rectangle_17729" d="M0 0h.003v13.238H0z" class="cls-1" data-name="Rectangle 17729" transform="translate(251.918 483.022)"/>
            <path id="Path_34948" d="M245.068 486.3a3.115 3.115 0 1 0 3.12 3.12 3.124 3.124 0 0 0-3.12-3.12zm0 5.23a2.115 2.115 0 1 1 2.12-2.11 2.119 2.119 0 0 1-2.12 2.108z" class="cls-4" data-name="Path 34948"/>
            <path id="Path_34949" d="M258.788 486.3a3.115 3.115 0 1 0 3.11 3.12 3.124 3.124 0 0 0-3.11-3.12zm0 5.23a2.115 2.115 0 1 1 2.11-2.11 2.119 2.119 0 0 1-2.11 2.108z" class="cls-4" data-name="Path 34949"/>
            <path id="Path_34950" d="M260.9 489.418a2.115 2.115 0 1 1-2.11-2.12 2.117 2.117 0 0 1 2.11 2.12z" class="cls-3" data-name="Path 34950"/>
            <path id="Path_34951" d="M247.568 500.028h-5a.617.617 0 0 0-.62.62v4.99a.623.623 0 0 0 .62.62h5a.623.623 0 0 0 .62-.62v-4.99a.617.617 0 0 0-.62-.62zm-.38 5.23h-4.24v-4.23h4.24z" class="cls-4" data-name="Path 34951"/>
            <path id="Rectangle_17730" d="M0 0h4.24v4.23H0z" class="cls-3" data-name="Rectangle 17730" transform="translate(242.948 501.028)"/>
            <path id="Path_34952" d="M261.748 504.818l-2.36-4.09a.7.7 0 0 0-.6-.35.727.727 0 0 0-.61.35l-2.36 4.09a.7.7 0 0 0 .61 1.05h4.72a.71.71 0 0 0 .6-.35.7.7 0 0 0 0-.7zm-4.8.05l1.84-3.19 1.83 3.19z" class="cls-4" data-name="Path 34952"/>
            <path id="Rectangle_17731" d="M0 0h13.218v13.156H0z" class="cls-1" data-name="Rectangle 17731" transform="translate(252.422 482.564)"/>
            <path id="Rectangle_17732" d="M0 0h13.218v13.199H0z" class="cls-1" data-name="Rectangle 17732" transform="translate(238.204 496.8)"/>
        </g>
    </g>
</svg>
