<svg xmlns="http://www.w3.org/2000/svg" width="40" height="40" viewBox="0 0 40 40">
    <defs>
        <style>
            .cls-1{fill:none}.cls-2{fill:#e2e1e1}.cls-3{fill:#323333}
        </style>
    </defs>
    <g id="ic_line" transform="translate(-1298 -345)">
        <path id="Rectangle_17646" d="M0 0h40v40H0z" class="cls-1" data-name="Rectangle 17646" transform="translate(1298 345)"/>
        <g id="Group_34112" data-name="Group 34112" transform="translate(1066.077 260.611)">
            <path id="Path_34838" d="M263.423 104.7l-4.546 2.273a2 2 0 1 1-3.532-.8l-4.629-5.951a1.958 1.958 0 0 1-1.8-.117l-4.274 4.274a1.971 1.971 0 0 1 .284 1.009 2 2 0 0 1-3.989.112l-2.011-.4v12.29h27v-12.279a1.96 1.96 0 0 1-2.5-.413z" class="cls-2" data-name="Path 34838"/>
            <path id="Path_34839" d="M265.923 117.389h-27V105.1l2.011.4a2 2 0 0 0 3.989-.112 1.971 1.971 0 0 0-.284-1.009l4.274-4.274a1.958 1.958 0 0 0 1.8.117l4.629 5.951a1.98 1.98 0 0 0-.422 1.215 2 2 0 1 0 3.954-.418l4.546-2.273a1.963 1.963 0 1 0-.455-.891l-4.545 2.273a1.976 1.976 0 0 0-2.294-.525L251.5 99.6a1.98 1.98 0 0 0 .423-1.215 2 2 0 0 0-4 0 1.97 1.97 0 0 0 .283 1.009l-4.274 4.274a1.974 1.974 0 0 0-2.8.848l-2.206-.441V90.389a1 1 0 0 0-2 0v28a1 1 0 0 0 1 1h28a1 1 0 0 0 0-2z" class="cls-3" data-name="Path 34839"/>
        </g>
    </g>
</svg>
