<svg xmlns="http://www.w3.org/2000/svg" width="40" height="40" viewBox="0 0 40 40">
    <defs>
        <style>
            .cls-1{fill:none}.cls-2{fill:#323333}.cls-3{fill:#bababa}.cls-4{fill:#e2e1e1}
        </style>
    </defs>
    <g id="ic_network" transform="translate(-233.922 -310.259)">
        <path id="Rectangle_17696" d="M0 0h40v40H0z" class="cls-1" data-name="Rectangle 17696" transform="translate(233.923 310.259)"/>
        <g id="Group_34170" data-name="Group 34170" transform="translate(2.5 2.5)">
            <path id="Path_34887" d="M263.423 336.759a2.99 2.99 0 0 0-1.64.5l-8.3-8.94a3.992 3.992 0 0 0 .94-2.56 4.907 4.907 0 0 0-.06-.67l3.43-1.05a5.117 5.117 0 1 0-.28-.95l-3.44 1.04a4.071 4.071 0 0 0-1.58-1.78l1.19-2.69a3.069 3.069 0 0 0 .74.1 3.012 3.012 0 1 0-1.65-.5l-1.2 2.69a3.9 3.9 0 0 0-1.15-.19 4 4 0 0 0-3.13 1.54l-4.08-2.45a2.822 2.822 0 0 0 .21-1.09 3.02 3.02 0 1 0-.731 1.95l4.081 2.44a3.934 3.934 0 0 0 .979 4.57l-1.31 1.86a6 6 0 1 0 2.981 5.18 5.97 5.97 0 0 0-2.16-4.6l1.31-1.87a4 4 0 0 0 1.85.47 3.931 3.931 0 0 0 2.329-.76l8.3 8.95a2.985 2.985 0 1 0 2.37-1.19zm-1.5-17a2.5 2.5 0 1 1-2.5 2.5 2.5 2.5 0 0 1 2.5-2.5zm-7.5-4a1 1 0 1 1-1 1 1 1 0 0 1 1-1zm-14 5a1 1 0 1 1 1-1 1 1 0 0 1-1 1zm7 15a4 4 0 1 1-4-4 4 4 0 0 1 4 4zm5-10a1.987 1.987 0 0 1-.31 1.08 2.189 2.189 0 0 1-.741.68 1.991 1.991 0 0 1-.949.24 2.011 2.011 0 0 1-.69-.13 1.987 1.987 0 0 1-.82-.58 1.944 1.944 0 0 1-.49-1.29 2.114 2.114 0 0 1 .09-.56 2.035 2.035 0 0 1 .51-.86 1.982 1.982 0 0 1 1.4-.58 1.73 1.73 0 0 1 .329.04 1.89 1.89 0 0 1 .911.41 1.72 1.72 0 0 1 .459.51 2 2 0 0 1 .3.96zm11 15a1 1 0 1 1 1-1 1 1 0 0 1-1 1z" class="cls-2" data-name="Path 34887"/>
            <g id="Group_34168" data-name="Group 34168">
                <circle id="Ellipse_1301" cx="4" cy="4" r="4" class="cls-3" data-name="Ellipse 1301" transform="translate(239.423 331.759)"/>
                <circle id="Ellipse_1302" cx="1" cy="1" r="1" class="cls-3" data-name="Ellipse 1302" transform="translate(253.423 315.759)"/>
            </g>
            <g id="Group_34169" data-name="Group 34169">
                <circle id="Ellipse_1303" cx="1" cy="1" r="1" class="cls-4" data-name="Ellipse 1303" transform="translate(239.423 318.759)"/>
                <circle id="Ellipse_1304" cx="2.5" cy="2.5" r="2.5" class="cls-4" data-name="Ellipse 1304" transform="translate(259.423 319.759)"/>
                <circle id="Ellipse_1305" cx="1" cy="1" r="1" class="cls-4" data-name="Ellipse 1305" transform="translate(262.423 338.759)"/>
            </g>
        </g>
    </g>
</svg>
