<svg xmlns="http://www.w3.org/2000/svg" width="40" height="40" viewBox="0 0 40 40">
    <defs>
        <style>
            .cls-1{fill:none}.cls-2{fill:#e2e1e1}.cls-3{fill:#323333}.cls-4{fill:#bababa}
        </style>
    </defs>
    <g id="ic_pairwise" transform="translate(-177.922 -422.259)">
        <path id="Rectangle_17713" d="M0 0h40v40H0z" class="cls-1" data-name="Rectangle 17713" transform="translate(177.923 422.259)"/>
        <g id="Group_34194" data-name="Group 34194" transform="translate(2 2)">
            <g id="Group_34190" data-name="Group 34190">
                <circle id="Ellipse_1307" cx=".5" cy=".5" r=".5" class="cls-2" data-name="Ellipse 1307" transform="translate(200.072 435.639)"/>
                <path id="Path_34920" d="M204.642 431.639a.4.4 0 1 0 .4.4.4.4 0 0 0-.4-.4z" class="cls-2" data-name="Path 34920"/>
                <circle id="Ellipse_1308" cx=".5" cy=".5" r=".5" class="cls-2" data-name="Ellipse 1308" transform="translate(186.653 448.999)"/>
                <path id="Path_34921" d="M191.223 445a.4.4 0 1 0 .4.4.4.4 0 0 0-.4-.4z" class="cls-2" data-name="Path 34921"/>
            </g>
            <g id="Group_34191" data-name="Group 34191">
                <path id="Path_34922" d="M200.572 437.639a1.5 1.5 0 1 0-1.5-1.5 1.511 1.511 0 0 0 1.5 1.5zm0-2a.5.5 0 0 1 .5.5.507.507 0 0 1-.5.5.5.5 0 0 1-.5-.5.5.5 0 0 1 .5-.5z" class="cls-3" data-name="Path 34922"/>
                <path id="Path_34923" d="M204.642 433.439a1.4 1.4 0 1 0-1.4-1.4 1.4 1.4 0 0 0 1.4 1.4zm0-1.8a.4.4 0 1 1-.4.4.4.4 0 0 1 .4-.4z" class="cls-3" data-name="Path 34923"/>
                <path id="Path_34924" d="M187.153 451a1.5 1.5 0 1 0-1.5-1.5 1.5 1.5 0 0 0 1.5 1.5zm0-2a.5.5 0 0 1 .5.5.5.5 0 0 1-.5.5.5.5 0 0 1-.5-.5.507.507 0 0 1 .5-.5z" class="cls-3" data-name="Path 34924"/>
                <path id="Path_34925" d="M191.223 446.8a1.4 1.4 0 1 0-1.4-1.4 1.4 1.4 0 0 0 1.4 1.4zm0-1.8a.4.4 0 1 1-.4.4.4.4 0 0 1 .4-.4z" class="cls-3" data-name="Path 34925"/>
                <path id="Path_34926" d="M209.923 453.259h-3.57v-5.94a.5.5 0 0 0-.5-.5h-2.43a.5.5 0 0 0-.5.5v5.94h-.64v-8.63a.5.5 0 0 0-.5-.5h-2.43a.5.5 0 0 0-.5.5v8.63h-2.43v-12.5h13a.5.5 0 0 0 .5-.5.5.5 0 0 0-.5-.5h-13v-13a.5.5 0 0 0-.5-.5.5.5 0 0 0-.5.5v13h-2.481v-8.42h-3.43v8.42h-.64v-4.31h-3.43v4.31h-2.519v-13.5a1 1 0 0 0-2 0v28a1 1 0 0 0 1 1h28a1 1 0 1 0 0-2zm-19.411-20.92h1.43v7.42h-1.43zm-4.07 4.11h1.43v3.31h-1.43zm8.981 16.81h-12.5v-12.5h12.5zm5.86-.14h-1.43v-7.99h1.43zm4.07 0h-1.43v-5.3h1.43z" class="cls-3" data-name="Path 34926"/>
            </g>
            <g id="Group_34192" data-name="Group 34192">
                <path id="Rectangle_17709" d="M0 0h1.43v5.3H0z" class="cls-2" data-name="Rectangle 17709" transform="translate(203.923 447.819)"/>
                <path id="Rectangle_17710" d="M0 0h1.43v7.99H0z" class="cls-2" data-name="Rectangle 17710" transform="translate(199.853 445.129)"/>
            </g>
            <g id="Group_34193" data-name="Group 34193">
                <path id="Rectangle_17711" d="M0 0h1.43v7.42H0z" class="cls-4" data-name="Rectangle 17711" transform="translate(190.512 432.339)"/>
                <path id="Rectangle_17712" d="M0 0h1.43v3.31H0z" class="cls-4" data-name="Rectangle 17712" transform="translate(186.442 436.449)"/>
            </g>
        </g>
    </g>
</svg>
