<svg xmlns="http://www.w3.org/2000/svg" width="40" height="40" viewBox="0 0 40 40">
    <defs>
        <style>
            .cls-1{fill:none}.cls-2{fill:#323333}.cls-3{fill:#bababa}.cls-4{fill:#e2e1e1}
        </style>
    </defs>
    <g id="ic_pie" transform="translate(-233.922 -142.389)">
        <path id="Rectangle_17664" d="M0 0h40v40H0z" class="cls-1" data-name="Rectangle 17664" transform="translate(233.923 142.389)"/>
        <g id="Group_34130" data-name="Group 34130" transform="translate(2 2)">
            <path id="Path_34853" d="M251.923 144.389a16 16 0 1 0 16 16 16.021 16.021 0 0 0-16-16zm.5 2.03a14 14 0 0 1 13.46 13.1h-13.46zm-.5 27.97a13.989 13.989 0 0 1-.5-27.97v13.6c0 .02.01.03.01.05s.009.04.02.06a.455.455 0 0 0 .08.19c.01.01.01.02.02.03l9.31 10.81a13.906 13.906 0 0 1-8.94 3.23zm9.51-4.11l-8.41-9.75H265.9a14.1 14.1 0 0 1-4.467 9.75z" class="cls-2" data-name="Path 34853"/>
            <path id="Path_34854" d="M265.9 160.529a14.1 14.1 0 0 1-4.47 9.75l-8.41-9.75z" class="cls-3" data-name="Path 34854"/>
            <path id="Path_34855" d="M265.883 159.519h-13.46v-13.1a14 14 0 0 1 13.46 13.1z" class="cls-4" data-name="Path 34855"/>
        </g>
    </g>
</svg>
