<svg xmlns="http://www.w3.org/2000/svg" width="40" height="40" viewBox="0 0 40 40">
    <defs>
        <style>
            .cls-1{fill:none}.cls-2{fill:#e2e1e1}.cls-3{fill:#323333}.cls-4{fill:#bababa}
        </style>
    </defs>
    <g id="ic_qqplot" transform="translate(-121.922 -422.259)">
        <path id="Rectangle_17708" d="M0 0h40v40H0z" class="cls-1" data-name="Rectangle 17708" transform="translate(121.923 422.259)"/>
        <g id="Group_34188" data-name="Group 34188" transform="translate(2 2)">
            <path id="Path_34912" d="M127.629 453.259l23.715-23.715a.5.5 0 0 0-.707-.707l-23.714 23.715v.707z" class="cls-2" data-name="Path 34912"/>
            <path id="Path_34913" d="M153.923 453.259h-27v-27a1 1 0 0 0-2 0v28a1 1 0 0 0 1 1h28a1 1 0 1 0 0-2z" class="cls-3" data-name="Path 34913"/>
            <path id="Path_34914" d="M133.868 443.974a2.965 2.965 0 1 0 2.97 2.96 2.966 2.966 0 0 0-2.97-2.96zm0 4.93a1.965 1.965 0 1 1 1.97-1.97 1.965 1.965 0 0 1-1.97 1.966z" class="cls-3" data-name="Path 34914"/>
            <path id="Path_34915" d="M148.208 430.9a2.185 2.185 0 1 0 2.19 2.18 2.185 2.185 0 0 0-2.19-2.18zm0 3.37a1.185 1.185 0 1 1 1.19-1.19 1.184 1.184 0 0 1-1.19 1.194z" class="cls-3" data-name="Path 34915"/>
            <g id="Group_34187" data-name="Group 34187">
                <path id="Path_34916" d="M133.868 444.974a1.965 1.965 0 1 0 1.97 1.96 1.963 1.963 0 0 0-1.97-1.96z" class="cls-2" data-name="Path 34916"/>
                <path id="Path_34917" d="M148.208 431.9a1.185 1.185 0 1 0 1.19 1.18 1.182 1.182 0 0 0-1.19-1.18z" class="cls-2" data-name="Path 34917"/>
            </g>
            <path id="Path_34918" d="M140.918 433.9a5.09 5.09 0 1 0 5.09 5.09 5.089 5.089 0 0 0-5.09-5.09zm0 9.18a4.09 4.09 0 1 1 4.09-4.09 4.093 4.093 0 0 1-4.09 4.094z" class="cls-3" data-name="Path 34918"/>
            <path id="Path_34919" d="M145.008 438.994a4.085 4.085 0 1 1-4.09-4.09 4.095 4.095 0 0 1 4.09 4.09z" class="cls-4" data-name="Path 34919"/>
        </g>
    </g>
</svg>
