<svg xmlns="http://www.w3.org/2000/svg" width="40" height="40" viewBox="0 0 40 40">
    <defs>
        <style>
            .cls-1{fill:none}.cls-2{fill:#e2e1e0}.cls-3{fill:#bababa}.cls-4{fill:#323333}
        </style>
    </defs>
    <g id="ic_radar" transform="translate(-65.922 -422.259)">
        <path id="Rectangle_17707" d="M0 0h40v40H0z" class="cls-1" data-name="Rectangle 17707" transform="translate(65.923 422.259)"/>
        <g id="Group_34185" data-name="Group 34185" transform="translate(1.957 2.285)">
            <g id="Group_34183" data-name="Group 34183">
                <path id="Path_34901" d="M92.849 438.631l-1.41 12.139 1.355 2.084 4.98-15.33z" class="cls-2" data-name="Path 34901"/>
                <path id="Path_34902" d="M76.992 451.7l-1.2 1.845h16.25l-1.2-1.845z" class="cls-2" data-name="Path 34902"/>
                <path id="Path_34903" d="M76.771 445.757l-4.909-7.831-1.788-.4 4.98 15.33 1.407-2.164z" class="cls-2" data-name="Path 34903"/>
                <path id="Path_34904" d="M80.552 433.794l2.871-4.153v-2.346l-12.83 9.32 1.727.388z" class="cls-2" data-name="Path 34904"/>
                <path id="Path_34905" d="M97.243 436.614l-12.82-9.32v2.139l8.077 8.247z" class="cls-2" data-name="Path 34905"/>
            </g>
            <g id="Group_34184" data-name="Group 34184">
                <path id="Path_34906" d="M84.733 440.454l3.012 4.634 2.669-5.911z" class="cls-3" data-name="Path 34906"/>
                <path id="Path_34907" d="M78.828 448.874l8.193-3.066-3.1-4.773z" class="cls-3" data-name="Path 34907"/>
                <path id="Path_34908" d="M77.188 439.123l-5.327-1.2 4.909 7.831 1.422 2.268 4.921-7.57z" class="cls-3" data-name="Path 34908"/>
                <path id="Path_34909" d="M83.423 439.494v-6.819l-2.871 1.119L72.321 437l5.206 1.169z" class="cls-3" data-name="Path 34909"/>
                <path id="Path_34910" d="M84.423 432.719v6.776l5.813-1.306z" class="cls-3" data-name="Path 34910"/>
            </g>
            <path id="Path_34911" d="M98.973 435.4L85.2 425.394a2.176 2.176 0 0 0-2.57 0l-13.77 10a2.193 2.193 0 0 0-.79 2.45l5.26 16.19a2.182 2.182 0 0 0 2.08 1.51h17.02a2.192 2.192 0 0 0 2.08-1.51l5.26-16.19a2.173 2.173 0 0 0-.797-2.444zm-14.55-8.11l12.82 9.32-12.82 2.88zm-1 0v12.2l-12.83-2.88zm-8.37 25.56l-4.98-15.33 13.04 2.93zm.74.69l8.13-12.51 8.12 12.51zm17-.69l-8.06-12.4 13.04-2.93z" class="cls-4" data-name="Path 34911"/>
        </g>
    </g>
</svg>
