<svg xmlns="http://www.w3.org/2000/svg" width="40" height="40" viewBox="0 0 40 40">
    <defs>
        <style>
            .cls-1{fill:none}.cls-2{fill:#e2e1e1}.cls-3{fill:#323333}
        </style>
    </defs>
    <g id="ic_roccurve" transform="translate(-177.922 -310.259)">
        <path id="Rectangle_17695" d="M0 0h40v40H0z" class="cls-1" data-name="Rectangle 17695" transform="translate(177.923 310.259)"/>
        <g id="Group_34166" data-name="Group 34166" transform="translate(2 2)">
            <path id="Path_34885" d="M182.923 337.057v4.2h27v-26.5a27.542 27.542 0 0 0-27 22.3z" class="cls-2" data-name="Path 34885"/>
            <path id="Path_34886" d="M209.923 341.259h-27v-4.2a27.542 27.542 0 0 1 27-22.3.5.5 0 1 0 0-1 28.544 28.544 0 0 0-27 19.4v-18.9a1 1 0 0 0-2 0v28a1 1 0 0 0 1 1h28a1 1 0 1 0 0-2z" class="cls-3" data-name="Path 34886"/>
        </g>
    </g>
</svg>
