<svg xmlns="http://www.w3.org/2000/svg" width="40" height="40" viewBox="0 0 40 40">
    <defs>
        <style>
            .cls-1{fill:#e2e1e1}.cls-2{fill:#323333}.cls-3{fill:#bababa}.cls-4{fill:none}
        </style>
    </defs>
    <g id="ic_scatter" transform="translate(-233.922 -198.389)">
        <g id="Group_34145" data-name="Group 34145" transform="translate(2 2)">
            <g id="Group_34142" data-name="Group 34142">
                <circle id="Ellipse_1289" cx="1" cy="1" r="1" class="cls-1" data-name="Ellipse 1289" transform="translate(243.418 221.885)"/>
                <circle id="Ellipse_1290" cx=".5" cy=".5" r=".5" class="cls-1" data-name="Ellipse 1290" transform="translate(259.418 222.885)"/>
                <circle id="Ellipse_1291" cx=".5" cy=".5" r=".5" class="cls-1" data-name="Ellipse 1291" transform="translate(243.418 207.885)"/>
                <circle id="Ellipse_1292" cx="1" cy="1" r="1" class="cls-1" data-name="Ellipse 1292" transform="translate(252.418 209.885)"/>
                <circle id="Ellipse_1293" cx="1" cy="1" r="1" class="cls-1" data-name="Ellipse 1293" transform="translate(257.418 213.885)"/>
            </g>
            <g id="Group_34143" data-name="Group 34143">
                <path id="Path_34859" d="M265.923 229.389h-27v-27a1 1 0 0 0-2 0v28a1 1 0 0 0 1 1h28a1 1 0 0 0 0-2z" class="cls-2" data-name="Path 34859"/>
                <path id="Path_34860" d="M244.418 224.885a2 2 0 1 0-2-2 1.993 1.993 0 0 0 2 2zm0-3a1 1 0 1 1-1 1 1 1 0 0 1 1-1z" class="cls-2" data-name="Path 34860"/>
                <path id="Path_34861" d="M258.418 223.385a1.5 1.5 0 1 0 1.5-1.5 1.5 1.5 0 0 0-1.5 1.5zm2 0a.5.5 0 0 1-.5.5.5.5 0 0 1-.5-.5.508.508 0 0 1 .5-.5.5.5 0 0 1 .5.5z" class="cls-2" data-name="Path 34861"/>
                <path id="Path_34862" d="M243.918 209.885a1.5 1.5 0 1 0-1.5-1.5 1.5 1.5 0 0 0 1.5 1.5zm0-2a.5.5 0 0 1 .5.5.5.5 0 0 1-.5.5.5.5 0 0 1-.5-.5.508.508 0 0 1 .5-.5z" class="cls-2" data-name="Path 34862"/>
                <path id="Path_34863" d="M251.418 221.885a3 3 0 1 0-3-3 3 3 0 0 0 3 3zm0-5a2 2 0 1 1-2 2 2 2 0 0 1 2-2z" class="cls-2" data-name="Path 34863"/>
                <path id="Path_34864" d="M253.418 212.885a2 2 0 1 0-2-2 1.993 1.993 0 0 0 2 2zm0-3a1 1 0 1 1-1 1 1 1 0 0 1 1-1z" class="cls-2" data-name="Path 34864"/>
                <path id="Path_34865" d="M258.418 216.885a2 2 0 1 0-2-2 1.993 1.993 0 0 0 2 2zm0-3a1 1 0 1 1-1 1 1 1 0 0 1 1-1z" class="cls-2" data-name="Path 34865"/>
                <path id="Path_34866" d="M260.918 208.885a2.5 2.5 0 1 0-2.5-2.5 2.5 2.5 0 0 0 2.5 2.5zm0-4a1.5 1.5 0 1 1-1.5 1.5 1.5 1.5 0 0 1 1.5-1.5z" class="cls-2" data-name="Path 34866"/>
            </g>
            <g id="Group_34144" data-name="Group 34144">
                <circle id="Ellipse_1294" cx="2" cy="2" r="2" class="cls-3" data-name="Ellipse 1294" transform="translate(249.418 216.885)"/>
                <circle id="Ellipse_1295" cx="1.5" cy="1.5" r="1.5" class="cls-3" data-name="Ellipse 1295" transform="translate(259.418 204.885)"/>
            </g>
        </g>
        <path id="Rectangle_17682" d="M0 0h40v40H0z" class="cls-4" data-name="Rectangle 17682" transform="translate(233.923 198.389)"/>
    </g>
</svg>
