<svg xmlns="http://www.w3.org/2000/svg" width="40" height="40" viewBox="0 0 40 40">
    <defs>
        <style>
            .cls-1{fill:#323333}.cls-2{fill:#e2e1e1}.cls-3{fill:#bababa}.cls-4{fill:none}
        </style>
    </defs>
    <g id="ic_table" transform="translate(-65.922 -86.389)">
        <g id="Group_34113" data-name="Group 34113" transform="translate(2.5 2.5)">
            <path id="Path_34840" d="M96.923 88.889h-26a2.514 2.514 0 0 0-2.5 2.5v26a2.507 2.507 0 0 0 2.5 2.5h26a2.5 2.5 0 0 0 2.5-2.5v-26a2.507 2.507 0 0 0-2.5-2.5zm-20.5 29h-5.5a.5.5 0 0 1-.5-.5v-5.5h6zm0-7h-6v-6h6zm0-7h-6v-6h6zm7 14h-6v-6h6zm0-7h-6v-6h6zm0-7h-6v-6h6zm7 14h-6v-6h6zm0-7h-6v-6h6zm0-7h-6v-6h6zm7 13.5a.5.5 0 0 1-.5.5h-5.5v-6h6zm0-6.5h-6v-6h6zm0-7h-6v-6h6zm0-7h-27v-5.5a.507.507 0 0 1 .5-.5h26a.5.5 0 0 1 .5.5z" class="cls-1" data-name="Path 34840"/>
            <path id="Rectangle_17637" d="M0 0h6v6H0z" class="cls-2" data-name="Rectangle 17637" transform="translate(91.423 104.889)"/>
            <path id="Rectangle_17638" d="M0 0h6v6H0z" class="cls-2" data-name="Rectangle 17638" transform="translate(84.423 111.889)"/>
            <path id="Rectangle_17639" d="M0 0h6v6H0z" class="cls-2" data-name="Rectangle 17639" transform="translate(84.423 97.889)"/>
            <path id="Rectangle_17640" d="M0 0h6v6H0z" class="cls-3" data-name="Rectangle 17640" transform="translate(84.423 104.889)"/>
            <path id="Rectangle_17641" d="M0 0h6v6H0z" class="cls-2" data-name="Rectangle 17641" transform="translate(77.423 104.889)"/>
            <path id="Rectangle_17642" d="M0 0h6v6H0z" class="cls-2" data-name="Rectangle 17642" transform="translate(70.423 104.889)"/>
        </g>
        <path id="Rectangle_17643" d="M0 0h40v40H0z" class="cls-4" data-name="Rectangle 17643" transform="translate(65.923 86.389)"/>
    </g>
</svg>
