<svg xmlns="http://www.w3.org/2000/svg" width="40" height="40" viewBox="0 0 40 40">
    <defs>
        <style>
            .cls-1{fill:none}.cls-2{fill:#bababa}.cls-3{fill:#e2e1e1}.cls-4{fill:#323333}
        </style>
    </defs>
    <g id="ic_treemap" transform="translate(-65.922 -366.259)">
        <path id="Rectangle_17698" d="M0 0h40v40H0z" class="cls-1" data-name="Rectangle 17698" transform="translate(65.923 366.259)"/>
        <g id="Group_34172" data-name="Group 34172" transform="translate(1.75 1.75)">
            <path id="Rectangle_17697" d="M0 0h7.375v13.75H0z" class="cls-2" data-name="Rectangle 17697" transform="translate(82.922 370.509)"/>
            <path id="Path_34888" d="M82.922 384.259H70.173v12.992a.758.758 0 0 0 .756.758H90.3v-13.75z" class="cls-3" data-name="Path 34888"/>
            <path id="Path_34889" d="M96.916 370.509H90.3v13.75h7.375v-12.995a.758.758 0 0 0-.759-.755z" class="cls-3" data-name="Path 34889"/>
            <path id="Path_34890" d="M96.916 368.509H70.929a2.76 2.76 0 0 0-2.756 2.758v25.984a2.76 2.76 0 0 0 2.756 2.758h25.987a2.761 2.761 0 0 0 2.757-2.758v-25.984a2.761 2.761 0 0 0-2.757-2.758zm.757 15.75v12.992a.759.759 0 0 1-.757.758H70.929a.758.758 0 0 1-.756-.758v-25.984a.758.758 0 0 1 .756-.758h25.987a.758.758 0 0 1 .756.755v12.995z" class="cls-4" data-name="Path 34890"/>
        </g>
    </g>
</svg>
