<svg xmlns="http://www.w3.org/2000/svg" width="40" height="40" version="1.1" style=""><rect id="backgroundrect" width="100%" height="100%" x="0" y="0" fill="none" stroke="none" class="" style=""/>
  <defs/>
  
<g class="currentLayer" style=""><title>Layer 1</title><g id="ic_wordcloud" class="">
    <path style="fill:#333333" id="path3726" d="M23.399013876875728,4.3361891948013085 a6.908689377697477,10.113943023183014 0 0 1 6.908689377697477,11.920004277322837 L29.937594895053692,18.96528535333388 l1.8505417975975387,0.3612122508279653 a5.551625392792615,8.127275643629208 0 0 1 4.688039220580428,8.127275643629208 a5.6749948459657835,8.307881769043188 0 0 1 -5.428255939619447,8.127275643629208 H9.33489621513443 a5.9217337523121225,8.669094019871155 0 0 1 -2.5907585166365537,-16.254551287258415 L7.731093323883231,18.7846792279199 v-1.444849003311859 a5.551625392792615,8.127275643629208 0 0 1 5.551625392792615,-7.4048511419732765 l1.8505417975975387,0.5418183762419484 l1.3570639849048618,0.7224245016559299 l0.7402167190390158,-1.8060612541398244 A7.032058830870646,10.294549148596998 0 0 1 23.399013876875728,4.3361891948013085 m0,-2.7090918812097358 a8.882600628468184,13.00364102980673 0 0 0 -7.525536643563321,6.1406082640754 a7.402167190390154,10.836367524838943 0 0 0 -9.869556253853537,9.2109123961131 A7.772275549909659,11.378185901080887 0 0 0 9.33489621513443,38.29014077262999 H31.047919973612217 a7.402167190390154,10.836367524838943 0 0 0 0.9869556253853541,-21.672735049677886 a8.759231175295012,12.823034904392747 0 0 0 -8.759231175295012,-14.990308409360539 z"/>
    <path id="path4836" d="m11.438057940911063,19.025235750603798 l7.253985672794795,-0.12653265146503626 " style="fill:#333333;stroke:#333333;stroke-width:1.8;stroke-linecap:round;stroke-linejoin:miter;stroke-miterlimit:4;stroke-dasharray:none;stroke-opacity:1"/>
    <path id="path4836-7" d="M11.623387974768123,24.191219313433923 L28.950239552640053,24.13630421494055 " style="fill:#333333;stroke:#333333;stroke-width:1.8;stroke-linecap:round;stroke-linejoin:miter;stroke-miterlimit:4;stroke-dasharray:none;stroke-opacity:1"/>
    <path id="path4836-7-1" d="M11.617374947620453,29.90013017411605 L24.383347901381143,29.82610694755388 " style="fill:#333333;stroke:#333333;stroke-width:1.8;stroke-linecap:round;stroke-linejoin:miter;stroke-miterlimit:4;stroke-dasharray:none;stroke-opacity:1"/>
    <path id="path4883" d="m21.905175114015897,18.82626740041897 h0.9036084565160929 " style="fill:#333333;stroke:#333333;stroke-width:1.79999995;stroke-linecap:round;stroke-linejoin:miter;stroke-miterlimit:4;stroke-dasharray:none;stroke-opacity:1;fill-opacity:1"/>
  </g></g></svg>